<svg width="351" height="117" viewBox="0 0 351 117" fill="none" xmlns="http://www.w3.org/2000/svg">
<path d="M127.39 21.73C128.174 22.1021 128.83 22.6994 129.273 23.4456C129.717 24.1919 129.928 25.0533 129.88 25.92C129.909 26.4468 129.82 26.9734 129.619 27.4613C129.419 27.9492 129.111 28.3861 128.72 28.74C127.875 29.4269 126.808 29.7824 125.72 29.74C124.973 29.7668 124.231 29.6088 123.56 29.28C123.763 28.4965 123.861 27.6894 123.85 26.88C123.904 25.9607 123.651 25.0495 123.13 24.29C122.846 23.9662 122.49 23.7135 122.09 23.552C121.691 23.3905 121.259 23.3248 120.83 23.36C120.035 23.3187 119.255 23.5836 118.65 24.1C118.372 24.3754 118.156 24.707 118.016 25.0726C117.876 25.4381 117.816 25.8293 117.84 26.22C117.826 27.1108 118.088 27.9842 118.59 28.72C119.082 29.4581 119.705 30.0989 120.43 30.61C121.16 31.14 122.16 31.77 123.43 32.52C124.661 33.24 125.852 34.0244 127 34.87C127.949 35.5786 128.75 36.4651 129.36 37.48C130.044 38.6166 130.391 39.924 130.36 41.25C130.432 42.4433 130.204 43.6356 129.698 44.7184C129.191 45.8012 128.422 46.7402 127.46 47.45C125.231 48.9266 122.591 49.6583 119.92 49.54C117.678 49.6098 115.452 49.14 113.43 48.17C112.601 47.7762 111.909 47.1446 111.44 46.3556C110.972 45.5667 110.749 44.6561 110.8 43.74C110.779 43.1927 110.875 42.6472 111.082 42.1402C111.289 41.6331 111.602 41.1761 112 40.8C112.402 40.4253 112.874 40.1335 113.389 39.9413C113.903 39.7492 114.451 39.6603 115 39.68C115.747 39.6437 116.49 39.7986 117.16 40.13C116.981 40.8501 116.884 41.5881 116.87 42.33C116.87 45.2033 118.057 46.64 120.43 46.64C121.415 46.6825 122.38 46.3502 123.13 45.71C123.469 45.389 123.733 44.9984 123.906 44.565C124.079 44.1316 124.155 43.6658 124.13 43.2C124.143 42.3077 123.885 41.4325 123.39 40.69C122.885 39.9501 122.252 39.3066 121.52 38.79C120.78 38.25 119.78 37.6 118.52 36.86C117.03 35.97 115.82 35.19 114.89 34.5C113.944 33.7887 113.143 32.9027 112.53 31.89C111.854 30.765 111.507 29.4725 111.53 28.16C111.519 26.656 112.012 25.1916 112.93 24C113.846 22.815 115.071 21.9051 116.47 21.37C118.007 20.7626 119.648 20.4603 121.3 20.48C123.401 20.4055 125.489 20.834 127.39 21.73Z" fill="white"/>
<path d="M150.13 29.6102C151.803 31.5702 152.637 34.2902 152.63 37.7702C152.63 41.3569 151.787 44.2169 150.1 46.3502C148.413 48.4835 145.927 49.5469 142.64 49.5402C139.38 49.5402 136.9 48.5402 135.18 46.4702C133.46 44.4002 132.62 41.6702 132.62 38.1802C132.62 34.6902 133.46 31.8402 135.16 29.7702C136.86 27.7002 139.36 26.6602 142.64 26.6602C145.92 26.6602 148.45 27.6402 150.13 29.6102ZM145.42 44.5302C145.868 42.3838 146.063 40.1921 146 38.0002C146.046 35.8742 145.824 33.7508 145.34 31.6802C144.9 30.0102 143.99 29.1702 142.6 29.1702C141.21 29.1702 140.31 30.0102 139.87 31.7002C139.387 33.7643 139.166 35.8809 139.21 38.0002C139.159 40.2003 139.367 42.3988 139.83 44.5502C140.24 46.2302 141.17 47.0702 142.6 47.0702C144.03 47.0702 145 46.2102 145.42 44.5302Z" fill="white"/>
<path d="M163 31.9101C162.698 33.4714 162.56 35.0601 162.59 36.6501V48.6501H156.2V27.4901L161.38 26.9901L161.67 30.7201C162.054 29.519 162.806 28.4693 163.82 27.7201C164.847 26.9912 166.081 26.6125 167.34 26.6401C168.024 26.6049 168.709 26.7071 169.353 26.9407C169.997 27.1742 170.587 27.5345 171.09 28.0001C171.564 28.4816 171.933 29.0566 172.172 29.6885C172.411 30.3205 172.516 30.9953 172.48 31.6701C172.542 32.2105 172.482 32.7579 172.303 33.2716C172.124 33.7853 171.831 34.2519 171.446 34.6365C171.062 35.0212 170.595 35.3139 170.082 35.4929C169.568 35.6719 169.02 35.7324 168.48 35.6701C168.12 35.6649 167.761 35.6213 167.41 35.5401C167.087 35.4962 166.776 35.3837 166.5 35.2101C166.704 34.5121 166.802 33.7873 166.79 33.0601C166.79 31.0601 166.14 30.0601 164.84 30.0601C163.86 30.0601 163.23 30.6801 163 31.9101Z" fill="white"/>
<path d="M172.4 29.3602V28.0702C173.804 27.5272 175.146 26.8331 176.4 26.0002C177.64 25.2132 178.77 24.2649 179.76 23.1802H181.54V27.4902H185.35V29.3602H181.5V44.1102C181.453 44.8089 181.617 45.5056 181.97 46.1102C182.158 46.3544 182.393 46.5588 182.661 46.7115C182.929 46.8643 183.224 46.9624 183.53 47.0002C183.238 47.7183 182.694 48.305 182 48.6502C181.237 49.0555 180.384 49.2618 179.52 49.2502C178.926 49.2926 178.33 49.2114 177.768 49.0117C177.207 48.8121 176.694 48.4983 176.26 48.0902C175.474 47.1545 175.083 45.9493 175.17 44.7302V29.3602H172.4Z" fill="white"/>
<path d="M204 44.1899C204.025 45.2667 203.622 46.3095 202.88 47.0899C202.086 47.9281 201.096 48.5568 200 48.9199C198.837 49.33 197.613 49.5397 196.38 49.5399C193.047 49.5399 190.537 48.5399 188.85 46.5399C187.15 44.5399 186.3 41.7599 186.3 38.2599C186.3 34.7599 187.22 31.7999 189.06 29.7599C190.9 27.7199 193.56 26.6899 197.06 26.6899C199.026 26.6099 200.967 27.1485 202.61 28.2299C203.332 28.7303 203.914 29.4078 204.299 30.1976C204.684 30.9873 204.86 31.8627 204.81 32.7399C204.81 35.1999 203.94 36.8999 202.2 37.8399C199.973 38.883 197.526 39.367 195.07 39.2499C194.335 39.262 193.6 39.2219 192.87 39.1299C192.868 40.7354 193.255 42.3175 194 43.7399C194.36 44.3091 194.869 44.7686 195.472 45.0683C196.075 45.3681 196.749 45.4966 197.42 45.4399C198.559 45.4496 199.681 45.1562 200.67 44.5899C201.652 44.0268 202.439 43.1796 202.93 42.1599C203.295 42.3476 203.594 42.643 203.785 43.0062C203.977 43.3694 204.052 43.7826 204 44.1899ZM193.68 31.5299C193.137 33.3674 192.864 35.274 192.87 37.1899H193.7C195.101 37.318 196.506 36.9844 197.7 36.2399C198.179 35.8214 198.552 35.2946 198.786 34.7033C199.021 34.112 199.112 33.4732 199.05 32.8399C199.081 31.9137 198.856 30.9969 198.4 30.1899C198.211 29.8497 197.932 29.5686 197.593 29.3779C197.254 29.1872 196.869 29.0945 196.48 29.1099C195.11 29.1099 194.19 29.9199 193.68 31.5299Z" fill="white"/>
<path d="M217.74 48.8801C216.678 49.3324 215.534 49.5572 214.38 49.5401C212.452 49.6007 210.559 49.0165 209 47.8801C208.287 47.3504 207.715 46.6542 207.333 45.8523C206.951 45.0505 206.772 44.1674 206.81 43.2801C206.739 42.1229 207.054 40.9748 207.706 40.0158C208.357 39.0567 209.308 38.3408 210.41 37.9801C213.325 36.9569 216.402 36.479 219.49 36.5701V33.0001C219.547 31.9716 219.362 30.944 218.95 30.0001C218.732 29.6479 218.417 29.3661 218.043 29.1887C217.668 29.0113 217.251 28.9458 216.84 29.0001C216.412 28.9741 215.984 29.0401 215.584 29.1936C215.183 29.3471 214.821 29.5846 214.52 29.8901C213.937 30.561 213.639 31.4329 213.69 32.3201C213.715 32.9928 213.799 33.662 213.94 34.3201C213.672 34.484 213.372 34.5897 213.06 34.6301C212.707 34.6958 212.349 34.7293 211.99 34.7301C210.988 34.7693 209.999 34.4854 209.17 33.9201C208.781 33.6556 208.469 33.2939 208.264 32.8711C208.058 32.4483 207.967 31.979 208 31.5101C208 29.9368 208.89 28.7368 210.67 27.9101C212.69 27.0311 214.878 26.6045 217.08 26.6601C220.06 26.6601 222.257 27.2568 223.67 28.4501C225.07 29.6301 225.78 31.6401 225.78 34.4501V44.4501C225.772 45.1278 225.87 45.8027 226.07 46.4501C226.267 47.0403 226.611 47.5704 227.07 47.9901C226.719 48.4101 226.253 48.7193 225.73 48.8801C225.149 49.0854 224.537 49.1903 223.92 49.1901C223.02 49.2231 222.129 49.0012 221.35 48.5501C220.668 48.131 220.168 47.4706 219.95 46.7001C219.493 47.6644 218.71 48.4364 217.74 48.8801ZM218.74 45.3501C219.279 44.3608 219.544 43.246 219.51 42.1201V38.6401C215.417 38.6401 213.37 40.1334 213.37 43.1201C213.332 44.0388 213.603 44.9437 214.14 45.6901C214.403 46.0227 214.741 46.2872 215.128 46.4613C215.514 46.6354 215.937 46.7138 216.36 46.6901C216.838 46.7096 217.312 46.5944 217.727 46.3574C218.143 46.1204 218.483 45.7714 218.71 45.3501H218.74Z" fill="white"/>
<path d="M249.11 46.51C249.307 47.1002 249.651 47.6303 250.11 48.05C249.759 48.47 249.293 48.7792 248.77 48.94C248.189 49.1453 247.577 49.2502 246.96 49.25C246.063 49.2833 245.176 49.0613 244.4 48.61C243.719 48.1894 243.22 47.5296 243 46.76C242.487 47.6807 241.696 48.4157 240.74 48.86C239.702 49.3238 238.576 49.5558 237.44 49.54C236.215 49.6289 234.99 49.3758 233.9 48.809C232.811 48.2422 231.9 47.384 231.27 46.33C229.894 43.7758 229.227 40.8993 229.34 38C229.34 34.43 230.2 31.66 231.91 29.67C233.62 27.68 236.19 26.67 239.62 26.67C240.584 26.6494 241.546 26.7604 242.48 27V19.62L248.82 18.96V44.48C248.808 45.1678 248.906 45.853 249.11 46.51ZM239.5 29.15C238.815 29.1276 238.145 29.3575 237.618 29.7962C237.09 30.2349 236.743 30.8519 236.64 31.53C236.14 33.5709 235.915 35.6694 235.97 37.77C235.924 39.8845 236.156 41.9959 236.66 44.05C237.11 45.72 238.04 46.56 239.45 46.56C239.918 46.5803 240.381 46.4657 240.785 46.2299C241.19 45.9941 241.518 45.647 241.73 45.23C242.257 44.2369 242.515 43.1236 242.48 42V30.14C241.616 29.5042 240.573 29.1577 239.5 29.15Z" fill="white"/>
<path d="M270.22 29.6102C271.9 31.6102 272.73 34.2902 272.73 37.7702C272.73 41.2502 271.89 44.2202 270.2 46.3502C268.51 48.4802 266.03 49.5402 262.74 49.5402C259.45 49.5402 257 48.5402 255.28 46.4702C253.56 44.4002 252.71 41.6702 252.71 38.1802C252.71 34.6902 253.56 31.8402 255.26 29.7702C256.96 27.7002 259.46 26.6602 262.74 26.6602C266.02 26.6602 268.55 27.6402 270.22 29.6102ZM265.52 44.5302C265.983 42.3788 266.191 40.1803 266.14 37.9802C266.186 35.8542 265.964 33.7308 265.48 31.6602C265.04 29.9902 264.13 29.1502 262.74 29.1502C261.35 29.1502 260.45 29.9902 260.01 31.6802C259.527 33.7443 259.306 35.8609 259.35 37.9802C259.299 40.1803 259.507 42.3788 259.97 44.5302C260.38 46.2102 261.31 47.0502 262.74 47.0502C264.17 47.0502 265.11 46.2102 265.52 44.5302Z" fill="white"/>
<path d="M283.05 31.9101C282.743 33.4707 282.605 35.0599 282.64 36.6501V48.6501H276.3V27.4901L281.48 26.9901L281.77 30.7201C282.154 29.519 282.906 28.4693 283.92 27.7201C284.947 26.9912 286.181 26.6125 287.44 26.6401C288.124 26.6049 288.809 26.7071 289.453 26.9407C290.097 27.1742 290.687 27.5345 291.19 28.0001C291.664 28.4816 292.033 29.0566 292.272 29.6885C292.511 30.3205 292.616 30.9953 292.58 31.6701C292.642 32.2105 292.582 32.7579 292.403 33.2716C292.224 33.7853 291.931 34.2519 291.546 34.6365C291.162 35.0212 290.695 35.3139 290.182 35.4929C289.668 35.6719 289.12 35.7324 288.58 35.6701C288.22 35.6649 287.861 35.6213 287.51 35.5401C287.187 35.4962 286.876 35.3837 286.6 35.2101C286.804 34.5121 286.902 33.7873 286.89 33.0601C286.89 31.0601 286.223 30.0601 284.89 30.0601C284 30.0601 283.33 30.6801 283.05 31.9101Z" fill="white"/>
<path d="M320.56 46.51C320.757 47.1002 321.101 47.6303 321.56 48.05C321.207 48.4725 320.737 48.782 320.21 48.94C319.632 49.1461 319.023 49.251 318.41 49.25C317.51 49.283 316.619 49.0611 315.84 48.61C315.158 48.1884 314.656 47.5295 314.43 46.76C313.922 47.6851 313.13 48.4216 312.17 48.86C311.136 49.3226 310.013 49.5547 308.88 49.54C307.654 49.6284 306.427 49.3753 305.336 48.8086C304.245 48.242 303.333 47.384 302.7 46.33C301.331 43.7669 300.674 40.8832 300.8 37.98C300.8 34.41 301.65 31.64 303.37 29.65C305.09 27.66 307.65 26.65 311.08 26.65C312.044 26.63 313.006 26.741 313.94 26.98V19.62L320.28 18.96V44.48C320.26 45.1675 320.355 45.8535 320.56 46.51ZM310.94 29.15C310.255 29.1298 309.586 29.3605 309.06 29.7988C308.533 30.2371 308.185 30.8528 308.08 31.53C307.589 33.5723 307.367 35.6701 307.42 37.77C307.376 39.8838 307.605 41.9945 308.1 44.05C308.56 45.72 309.49 46.56 310.9 46.56C311.367 46.5779 311.83 46.4622 312.233 46.2267C312.637 45.9911 312.966 45.6454 313.18 45.23C313.707 44.2369 313.965 43.1236 313.93 42V30.14C313.062 29.504 312.016 29.1576 310.94 29.15Z" fill="white"/>
<path d="M341.86 44.1902C341.88 45.266 341.478 46.3069 340.74 47.0902C339.943 47.9252 338.954 48.5534 337.86 48.9202C336.693 49.3294 335.466 49.539 334.23 49.5402C330.897 49.5402 328.39 48.5402 326.71 46.5402C325.01 44.5402 324.16 41.7602 324.16 38.2602C324.16 34.7602 325.08 31.8002 326.92 29.7602C328.76 27.7202 331.41 26.6902 334.92 26.6902C336.889 26.6114 338.833 27.1498 340.48 28.2302C341.2 28.7324 341.779 29.4106 342.162 30.2001C342.546 30.9895 342.72 31.864 342.67 32.7402C342.67 35.2002 341.8 36.9002 340.06 37.8402C337.837 38.8833 335.393 39.3673 332.94 39.2502C332.205 39.2626 331.47 39.2225 330.74 39.1302C330.731 40.7473 331.123 42.3414 331.88 43.7702C332.24 44.3394 332.749 44.7988 333.352 45.0986C333.955 45.3983 334.629 45.5269 335.3 45.4702C336.44 45.4799 337.561 45.1865 338.55 44.6202C339.527 44.0518 340.314 43.2061 340.81 42.1902C341.166 42.3789 341.457 42.6709 341.644 43.0278C341.832 43.3847 341.907 43.7898 341.86 44.1902ZM331.52 31.5302C330.977 33.3677 330.704 35.2743 330.71 37.1902H331.54C332.941 37.3183 334.346 36.9847 335.54 36.2402C336.017 35.8207 336.388 35.2934 336.621 34.7022C336.854 34.1109 336.943 33.4726 336.88 32.8402C336.914 31.9149 336.692 30.9982 336.24 30.1902C336.051 29.8485 335.77 29.5663 335.429 29.3755C335.088 29.1847 334.7 29.0929 334.31 29.1102C333 29.1102 332 29.9202 331.52 31.5302Z" fill="white"/>
<path d="M124.34 65.5601L130.72 90.4901H124.34L122.9 84.3301H115.9L114.5 90.4901H110L116.87 65.5601H124.34ZM116.63 81.3501H122.22L119.39 69.2601L116.63 81.3501Z" fill="white"/>
<path d="M132.88 71.2301L137.6 70.7701L137.86 74.1701C138.86 71.7001 140.79 70.4701 143.79 70.4701C145.012 70.4125 146.227 70.6928 147.3 71.2801C148.221 71.8466 148.925 72.7058 149.3 73.7201C149.768 72.6742 150.55 71.7997 151.537 71.2175C152.524 70.6353 153.668 70.3741 154.81 70.4701C156.98 70.4701 158.51 71.0601 159.42 72.2501C160.439 73.8287 160.916 75.6961 160.78 77.5701V86.7101C160.767 87.3374 160.858 87.9626 161.05 88.5601C161.223 89.097 161.534 89.5795 161.95 89.9601C161.617 90.3456 161.179 90.6269 160.69 90.7701C160.149 90.9568 159.582 91.0547 159.01 91.0601C157.917 91.1369 156.838 90.7773 156.01 90.0601C155.648 89.6543 155.373 89.1789 155.201 88.6631C155.029 88.1473 154.964 87.6019 155.01 87.0601V77.8701C155.052 76.7355 154.913 75.6014 154.6 74.5101C154.463 74.1306 154.202 73.8086 153.859 73.5962C153.516 73.3838 153.111 73.2936 152.71 73.3401C152.184 73.3132 151.666 73.4732 151.247 73.7916C150.828 74.11 150.535 74.5665 150.42 75.0801C150.018 76.5316 149.833 78.0345 149.87 79.5401V90.4901H144.1V77.8701C144.146 76.728 144.004 75.5861 143.68 74.4901C143.526 74.1002 143.245 73.7741 142.881 73.5651C142.518 73.3562 142.094 73.2769 141.68 73.3401C141.14 73.2986 140.602 73.4452 140.157 73.7551C139.712 74.0649 139.388 74.5188 139.24 75.0401C138.802 76.4985 138.603 78.0181 138.65 79.5401V90.4901H132.88V71.2301Z" fill="white"/>
<path d="M170.44 63.4098C170.745 63.6434 170.989 63.9473 171.151 64.2956C171.313 64.6438 171.388 65.0261 171.37 65.4098C171.384 65.8003 171.3 66.1881 171.126 66.5376C170.951 66.8871 170.691 67.187 170.37 67.4098C169.622 67.9055 168.736 68.1507 167.84 68.1098C166.963 68.1498 166.096 67.9042 165.37 67.4098C165.045 67.1911 164.782 66.892 164.607 66.5415C164.431 66.191 164.35 65.8011 164.37 65.4098C164.353 65.0118 164.435 64.6158 164.61 64.2578C164.784 63.8998 165.046 63.5911 165.37 63.3598C166.114 62.8371 167.011 62.5768 167.92 62.6198C168.826 62.5837 169.717 62.8629 170.44 63.4098ZM170.69 86.7098C170.674 87.3366 170.762 87.9616 170.95 88.5598C171.131 89.0954 171.444 89.5769 171.86 89.9598C171.524 90.3474 171.083 90.6289 170.59 90.7698C170.049 90.9565 169.482 91.0544 168.91 91.0598C168.369 91.0995 167.825 91.0315 167.31 90.8599C166.795 90.6882 166.319 90.4163 165.91 90.0598C165.548 89.654 165.273 89.1786 165.101 88.6628C164.929 88.147 164.864 87.6016 164.91 87.0598V71.2298H170.69V86.7098Z" fill="white"/>
<path d="M185.27 94.7399C185.775 93.9015 186.077 92.9561 186.15 91.9799C186.282 90.5171 186.339 89.0485 186.32 87.5799V86.4099C185.795 87.1342 185.068 87.6873 184.23 87.9999C183.314 88.3362 182.345 88.5023 181.37 88.4899C180.341 88.569 179.309 88.3911 178.367 87.9721C177.424 87.5532 176.6 86.9063 175.97 86.0899C174.722 84.1676 174.116 81.8986 174.24 79.6099C174.24 76.6699 175 74.4099 176.54 72.8499C178.08 71.2899 180.3 70.5099 183.23 70.5099C184.663 70.4899 186.086 70.748 187.42 71.2699L191.84 70.6599V86.6599C191.884 88.8036 191.601 90.9416 191 92.9999C190.551 94.5472 189.561 95.8815 188.21 96.7599C186.526 97.6826 184.617 98.1123 182.7 97.9999C180.937 98.0344 179.19 97.6542 177.6 96.8899C176.931 96.6163 176.361 96.1473 175.963 95.5443C175.565 94.9413 175.358 94.2322 175.37 93.5099C175.342 93.0963 175.419 92.6823 175.594 92.3064C175.769 91.9306 176.036 91.605 176.37 91.3599C177.135 90.8518 178.042 90.5997 178.96 90.6399C179.576 90.5708 180.197 90.7042 180.73 91.0199C180.601 91.6017 180.528 92.1943 180.51 92.7899C180.468 93.5718 180.678 94.3467 181.11 94.9999C181.335 95.2786 181.625 95.4981 181.955 95.6393C182.284 95.7804 182.643 95.839 183 95.8099C183.439 95.8464 183.88 95.7668 184.278 95.5789C184.677 95.3911 185.019 95.1017 185.27 94.7399ZM183.34 72.7399C182.774 72.7058 182.213 72.8726 181.758 73.211C181.302 73.5494 180.981 74.0377 180.85 74.5899C180.399 76.1349 180.193 77.7411 180.24 79.3499C180.196 80.9093 180.402 82.4656 180.85 83.9599C180.984 84.4995 181.302 84.9754 181.749 85.3058C182.196 85.6361 182.745 85.8003 183.3 85.7699C183.732 85.7916 184.161 85.6868 184.534 85.4683C184.907 85.2498 185.208 84.9271 185.4 84.5399C185.862 83.6088 186.088 82.5788 186.06 81.5399V73.6099C185.27 73.0355 184.317 72.7305 183.34 72.7399Z" fill="white"/>
<path d="M211.2 73.15C212.72 74.9367 213.48 77.4167 213.48 80.59C213.627 83.3826 212.815 86.1416 211.18 88.41C210.355 89.3957 209.31 90.173 208.128 90.6786C206.947 91.1842 205.662 91.404 204.38 91.32C203.109 91.4023 201.836 91.1938 200.658 90.7103C199.48 90.2269 198.427 89.4812 197.58 88.53C195.931 86.377 195.102 83.7081 195.24 81C195.09 78.2504 195.911 75.5355 197.56 73.33C199.113 71.4433 201.387 70.5 204.38 70.5C207.373 70.5 209.647 71.3833 211.2 73.15ZM206.91 86.75C207.336 84.7794 207.527 82.7655 207.48 80.75C207.518 78.812 207.313 76.8769 206.87 74.99C206.47 73.47 205.64 72.71 204.38 72.71C203.12 72.71 202.29 73.48 201.89 75.01C201.443 76.8896 201.238 78.8185 201.28 80.75C201.233 82.7655 201.424 84.7794 201.85 86.75C202.23 88.29 203.07 89.05 204.38 89.05C205.69 89.05 206.53 88.29 206.91 86.75Z" fill="white"/>
<path d="M237 66.0001C237.712 66.3404 238.307 66.8837 238.711 67.5617C239.115 68.2397 239.31 69.0219 239.27 69.8101C239.299 70.2908 239.219 70.7719 239.036 71.2171C238.852 71.6623 238.57 72.06 238.21 72.3801C237.435 73.0088 236.457 73.3324 235.46 73.2901C234.769 73.3173 234.082 73.173 233.46 72.8701C233.651 72.1561 233.742 71.4191 233.73 70.6801C233.78 69.8418 233.547 69.011 233.07 68.3201C232.812 68.0231 232.487 67.7913 232.122 67.6436C231.757 67.4959 231.362 67.4364 230.97 67.4701C230.24 67.4291 229.523 67.6729 228.97 68.1501C228.713 68.3985 228.514 68.6999 228.387 69.0333C228.259 69.3666 228.205 69.7239 228.23 70.0801C228.22 70.8915 228.457 71.6867 228.91 72.3601C229.362 73.0301 229.931 73.6128 230.59 74.0801C231.26 74.5601 232.17 75.1401 233.33 75.8201C234.468 76.4764 235.57 77.1941 236.63 77.9701C237.494 78.6196 238.227 79.4272 238.79 80.3501C239.401 81.3912 239.706 82.5835 239.67 83.7901C239.736 84.8759 239.529 85.961 239.068 86.9462C238.607 87.9315 237.906 88.7854 237.03 89.4301C235.001 90.7805 232.595 91.4495 230.16 91.3401C228.115 91.4097 226.083 90.9807 224.24 90.0901C223.492 89.7327 222.866 89.1625 222.441 88.4509C222.016 87.7393 221.81 86.9181 221.85 86.0901C221.829 85.5932 221.913 85.0974 222.098 84.6354C222.282 84.1735 222.562 83.7559 222.92 83.4101C223.666 82.7284 224.651 82.369 225.66 82.4101C226.352 82.3708 227.042 82.5157 227.66 82.8301C227.496 83.4848 227.406 84.1555 227.39 84.8301C227.39 87.4501 228.473 88.7601 230.64 88.7601C231.535 88.7969 232.41 88.4931 233.09 87.9101C233.406 87.6206 233.654 87.2657 233.818 86.8701C233.982 86.4746 234.058 86.048 234.04 85.6201C234.05 84.8087 233.813 84.0135 233.36 83.3401C232.902 82.6633 232.326 82.074 231.66 81.6001C230.98 81.1101 230.07 80.5201 228.94 79.8401C227.8 79.1813 226.695 78.4636 225.63 77.6901C224.769 77.0404 224.039 76.2327 223.48 75.3101C222.87 74.2829 222.561 73.1045 222.59 71.9101C222.531 70.5078 222.954 69.1276 223.79 68.0001C224.625 66.9182 225.743 66.0878 227.02 65.6001C228.421 65.0476 229.914 64.7692 231.42 64.7801C233.351 64.7317 235.265 65.1503 237 66.0001Z" fill="white"/>
<path d="M257.86 86.4499C257.884 87.4267 257.525 88.3743 256.86 89.0899C256.138 89.8516 255.237 90.422 254.24 90.7499C253.178 91.129 252.058 91.3218 250.93 91.3199C247.91 91.3199 245.627 90.3999 244.08 88.5599C242.413 86.4045 241.579 83.7205 241.73 80.9999C241.73 77.6666 242.57 75.0866 244.25 73.2599C245.93 71.4332 248.353 70.4999 251.52 70.4599C253.311 70.3917 255.079 70.8809 256.58 71.8599C257.237 72.3191 257.766 72.9387 258.116 73.6598C258.466 74.3809 258.626 75.1796 258.58 75.9799C258.58 78.2199 257.787 79.7666 256.2 80.6199C254.171 81.5742 251.939 82.0171 249.7 81.9099C249.031 81.9219 248.363 81.8817 247.7 81.7899C247.683 83.2604 248.026 84.7128 248.7 86.0199C249.026 86.5411 249.49 86.9619 250.041 87.2355C250.592 87.509 251.208 87.6248 251.82 87.5699C252.871 87.5869 253.907 87.321 254.82 86.7999C255.711 86.2843 256.428 85.5149 256.88 84.5899C257.215 84.7616 257.488 85.0323 257.664 85.3651C257.839 85.698 257.908 86.0767 257.86 86.4499ZM248.44 74.9099C247.944 76.5813 247.694 78.3163 247.7 80.0599H248.46C249.722 80.1711 250.985 79.8693 252.06 79.1999C252.499 78.8202 252.84 78.3401 253.054 77.8005C253.269 77.2608 253.349 76.6774 253.29 76.0999C253.32 75.2556 253.119 74.4191 252.71 73.6799C252.538 73.3666 252.282 73.1072 251.972 72.9306C251.661 72.7541 251.307 72.6673 250.95 72.6799C249.74 72.6999 248.9 73.4399 248.44 74.9099Z" fill="white"/>
<path d="M266.51 80.7101C266.44 82.4197 266.737 84.1245 267.38 85.7101C267.672 86.3188 268.145 86.8229 268.733 87.1538C269.322 87.4848 269.998 87.6266 270.67 87.5601C271.637 87.5892 272.586 87.2974 273.37 86.7301C274.136 86.1399 274.704 85.3308 275 84.4101C275.408 84.5347 275.761 84.796 276 85.1501C276.233 85.5023 276.352 85.9179 276.34 86.3401C276.364 87.3243 276.03 88.2838 275.4 89.0401C274.737 89.8053 273.89 90.3901 272.94 90.7401C271.916 91.1329 270.827 91.3297 269.73 91.3201C266.73 91.3201 264.42 90.4001 262.88 88.5601C261.217 86.4033 260.386 83.7194 260.54 81.0001C260.384 78.212 261.26 75.464 263 73.2801C264.63 71.4101 267 70.4701 270.18 70.4701C271.827 70.4078 273.462 70.7803 274.92 71.5501C275.525 71.8911 276.021 72.3956 276.352 73.0059C276.682 73.6162 276.834 74.3074 276.79 75.0001C276.819 75.4152 276.742 75.8309 276.567 76.2085C276.393 76.5861 276.125 76.9135 275.79 77.1601C275.014 77.6594 274.102 77.9073 273.18 77.8701C272.845 77.8704 272.51 77.8403 272.18 77.7801C271.904 77.7406 271.638 77.6453 271.4 77.5001C271.53 76.915 271.607 76.3192 271.63 75.7201C271.63 73.7201 270.95 72.7201 269.63 72.7201C267.54 72.7401 266.51 75.3901 266.51 80.7101Z" fill="white"/>
<path d="M285.66 75.2501C285.38 76.6725 285.253 78.1207 285.28 79.5701V90.4901H279.5V71.2301L284.23 70.7701L284.49 74.1701C284.855 73.0762 285.555 72.1247 286.49 71.4501C287.429 70.781 288.557 70.4305 289.71 70.4501C290.332 70.418 290.953 70.5103 291.539 70.7215C292.124 70.9327 292.662 71.2586 293.12 71.6801C293.543 72.1188 293.87 72.6402 294.082 73.2116C294.294 73.7829 294.385 74.3918 294.35 75.0001C294.382 75.4932 294.316 75.9879 294.154 76.455C293.993 76.922 293.74 77.3522 293.41 77.7201C293.048 78.0505 292.623 78.3048 292.161 78.468C291.699 78.6312 291.209 78.6999 290.72 78.6701C290.383 78.6646 290.048 78.6244 289.72 78.5501C289.425 78.5109 289.142 78.4086 288.89 78.2501C289.082 77.6014 289.17 76.9263 289.15 76.2501C289.15 74.4101 288.56 73.4901 287.38 73.4901C286.46 73.5434 285.887 74.1301 285.66 75.2501Z" fill="white"/>
<path d="M311.35 86.4501C311.374 87.4269 311.015 88.3745 310.35 89.0901C309.624 89.8519 308.72 90.4222 307.72 90.7501C306.661 91.1282 305.545 91.321 304.42 91.3201C301.42 91.3201 299.11 90.4001 297.56 88.5601C295.896 86.4037 295.065 83.7195 295.22 81.0001C295.22 77.7001 296.05 75.1201 297.73 73.2601C299.41 71.4001 301.83 70.4601 305 70.4601C306.791 70.3906 308.559 70.8799 310.06 71.8601C310.718 72.3179 311.248 72.9373 311.598 73.6587C311.949 74.3802 312.108 75.1795 312.06 75.9801C312.06 78.2201 311.267 79.7668 309.68 80.6201C307.655 81.5747 305.426 82.0177 303.19 81.9101C302.521 81.9227 301.852 81.8826 301.19 81.7901C301.173 83.2606 301.516 84.713 302.19 86.0201C302.516 86.5413 302.98 86.9621 303.531 87.2356C304.082 87.5092 304.698 87.625 305.31 87.5701C306.361 87.5842 307.396 87.3184 308.31 86.8001C309.198 86.2839 309.912 85.5144 310.36 84.5901C310.698 84.7592 310.974 85.029 311.152 85.3623C311.329 85.6955 311.398 86.0757 311.35 86.4501ZM301.92 74.9101C301.427 76.5821 301.181 78.317 301.19 80.0601H301.94C303.205 80.1713 304.471 79.8696 305.55 79.2001C305.989 78.8204 306.33 78.3403 306.544 77.8006C306.759 77.261 306.839 76.6776 306.78 76.1001C306.807 75.2548 306.603 74.4183 306.19 73.6801C306.018 73.3668 305.762 73.1074 305.452 72.9308C305.141 72.7543 304.787 72.6675 304.43 72.6801C303.23 72.7001 302.39 73.4401 301.92 74.9101Z" fill="white"/>
<path d="M313.08 72.9298V71.7598C314.366 71.2599 315.596 70.6264 316.75 69.8698C317.875 69.1467 318.903 68.2831 319.81 67.2998H321.43V71.2298H324.91V72.9298H321.39V86.3698C321.353 87.0003 321.506 87.6275 321.83 88.1698C322.176 88.614 322.682 88.9048 323.24 88.9798C322.98 89.6432 322.486 90.1878 321.85 90.5098C321.15 90.8776 320.37 91.0666 319.58 91.0598C319.033 91.1045 318.484 91.0332 317.967 90.8505C317.45 90.6679 316.977 90.3779 316.58 89.9998C315.862 89.1483 315.503 88.0509 315.58 86.9398V72.9398L313.08 72.9298Z" fill="white"/>
<path d="M341.73 73.15C343.243 74.9367 344 77.4167 344 80.59C344.147 83.3826 343.335 86.1416 341.7 88.41C340.875 89.3957 339.83 90.173 338.648 90.6786C337.467 91.1842 336.182 91.404 334.9 91.32C333.629 91.403 332.356 91.1948 331.177 90.7114C329.999 90.2279 328.946 89.4818 328.1 88.53C326.455 86.3757 325.629 83.7069 325.77 81C325.623 78.2492 326.448 75.5341 328.1 73.33C329.647 71.4433 331.92 70.5 334.92 70.5C337.92 70.5 340.19 71.3833 341.73 73.15ZM337.45 86.75C337.867 84.7782 338.055 82.7649 338.01 80.75C338.051 78.8125 337.849 76.8775 337.41 74.99C337.01 73.47 336.17 72.71 334.92 72.71C333.67 72.71 332.83 73.48 332.42 75.01C331.982 76.891 331.781 78.8192 331.82 80.75C331.775 82.7649 331.963 84.7782 332.38 86.75C332.76 88.29 333.61 89.05 334.92 89.05C336.23 89.05 337.07 88.29 337.45 86.75Z" fill="white"/>
<path d="M50.5701 92.9999C50.3781 92.9987 50.1893 92.9506 50.0201 92.8599L7.61008 70.4399C7.34473 70.3044 7.14167 70.072 7.043 69.7909C6.94433 69.5098 6.95761 69.2015 7.08008 68.9299L25.4801 26.7599C25.5482 26.6119 25.6452 26.479 25.7654 26.3691C25.8856 26.2592 26.0266 26.1744 26.1801 26.1199C26.3332 26.0663 26.4957 26.0449 26.6574 26.057C26.8191 26.069 26.9767 26.1143 27.1201 26.1899L69.5301 48.5899C69.7904 48.7307 69.9889 48.9633 70.0869 49.2425C70.1848 49.5217 70.1753 49.8274 70.0601 50.0999L51.6501 92.2699C51.5852 92.4182 51.4904 92.5516 51.3717 92.6617C51.253 92.7718 51.1129 92.8563 50.9601 92.9099C50.8375 92.9659 50.7049 92.9965 50.5701 92.9999ZM9.68008 68.8699L50.0001 90.1599L67.4601 50.1599L27.1401 28.8699L9.68008 68.8699Z" fill="white" stroke="white" stroke-miterlimit="10"/>
<path d="M69.0001 50.81C68.7356 50.8091 68.4791 50.7201 68.2708 50.5571C68.0626 50.3941 67.9145 50.1665 67.8501 49.91C67.8129 49.7596 67.806 49.6033 67.8297 49.4502C67.8535 49.2971 67.9074 49.1502 67.9883 49.0181C68.0692 48.886 68.1756 48.7713 68.3012 48.6807C68.4268 48.59 68.5692 48.5252 68.7201 48.49L90.1501 43.21L50.7501 22.41L26.7501 28.32C26.4466 28.3928 26.1266 28.3435 25.8591 28.1826C25.5916 28.0218 25.398 27.7622 25.3201 27.46C25.278 27.3083 25.2667 27.1497 25.2868 26.9936C25.307 26.8374 25.3582 26.6869 25.4374 26.5508C25.5166 26.4148 25.6222 26.296 25.7481 26.2014C25.8739 26.1068 26.0174 26.0383 26.1701 26L50.6201 20C50.9007 19.9311 51.1971 19.9703 51.4501 20.11L94.0001 42.57C94.213 42.6808 94.3867 42.8544 94.4976 43.0673C94.6085 43.2801 94.6513 43.522 94.6201 43.76C94.5905 43.9972 94.4895 44.2198 94.3306 44.3984C94.1717 44.577 93.9623 44.7031 93.7301 44.76L69.2901 50.76C69.1968 50.7924 69.0988 50.8093 69.0001 50.81Z" fill="white" stroke="white" stroke-miterlimit="10"/>
<path d="M50.57 93.0001C50.3138 92.9989 50.065 92.9143 49.8612 92.7591C49.6573 92.604 49.5095 92.3867 49.44 92.1401C49.3974 91.9917 49.3845 91.8364 49.4022 91.683C49.4199 91.5296 49.4678 91.3812 49.5431 91.2464C49.6184 91.1117 49.7196 90.9931 49.841 90.8976C49.9623 90.8021 50.1013 90.7316 50.25 90.6901L70.25 85.0501L92.41 43.0501C92.5583 42.7767 92.8085 42.5729 93.1063 42.483C93.404 42.3931 93.7252 42.4244 94 42.5701C94.1372 42.6417 94.2588 42.7398 94.3579 42.8587C94.4569 42.9776 94.5313 43.115 94.5769 43.2628C94.6225 43.4107 94.6383 43.5662 94.6233 43.7202C94.6084 43.8742 94.5631 44.0237 94.49 44.1601L72.07 86.5801C71.9936 86.721 71.8896 86.8449 71.7642 86.9446C71.6387 87.0442 71.4945 87.1176 71.34 87.1601L50.89 92.9301C50.7873 92.9689 50.6795 92.9924 50.57 93.0001Z" fill="white" stroke="white" stroke-miterlimit="10"/>
<path d="M51.6552 32.3856C52.3045 31.1546 51.8329 29.6303 50.6019 28.981C49.3709 28.3317 47.8466 28.8032 47.1973 30.0342C46.548 31.2653 47.0196 32.7896 48.2506 33.4389C49.4816 34.0882 51.0059 33.6166 51.6552 32.3856Z" fill="white" stroke="white" stroke-miterlimit="10"/>
<path d="M49.43 34.91H49.37C48.3904 34.8916 47.4581 34.4854 46.7776 33.7805C46.0971 33.0756 45.7239 32.1296 45.74 31.15C45.7478 30.6654 45.851 30.1871 46.0437 29.7424C46.2364 29.2977 46.5148 28.8953 46.8631 28.5582C47.2113 28.2211 47.6225 27.9559 48.0733 27.7778C48.524 27.5997 49.0054 27.5121 49.49 27.52C50.4367 27.5764 51.3257 27.9941 51.9733 28.6871C52.6209 29.38 52.9776 30.2951 52.9699 31.2435C52.9622 32.1919 52.5907 33.1011 51.9319 33.7834C51.2731 34.4657 50.3775 34.869 49.43 34.91ZM49.43 32.55C49.7803 32.5501 50.1166 32.413 50.3671 32.1682C50.6175 31.9233 50.7622 31.5902 50.77 31.24C50.777 31.0563 50.7469 30.8732 50.6816 30.7014C50.6164 30.5296 50.5172 30.3727 50.39 30.24C50.2677 30.1142 50.1217 30.0141 49.9603 29.9454C49.7989 29.8767 49.6254 29.8409 49.45 29.84C49.2666 29.8268 49.0825 29.853 48.91 29.9168C48.7375 29.9807 48.5807 30.0806 48.45 30.21C48.2605 30.3945 48.1298 30.6309 48.0744 30.8895C48.019 31.1481 48.0413 31.4173 48.1386 31.6632C48.2359 31.9091 48.4038 32.1208 48.6212 32.2714C48.8385 32.4221 49.0956 32.5051 49.36 32.51L49.43 32.55Z" fill="white" stroke="white" stroke-miterlimit="10"/>
<path d="M70.0001 70.34C69.5014 70.332 69.0162 70.1761 68.6061 69.8922C68.196 69.6083 67.8794 69.209 67.6964 68.745C67.5133 68.281 67.4721 67.7731 67.5779 67.2857C67.6838 66.7982 67.9319 66.3532 68.2908 66.0068C68.6498 65.6605 69.1035 65.4285 69.5944 65.3401C70.0853 65.2518 70.5914 65.3112 71.0485 65.5107C71.5057 65.7102 71.8934 66.0409 72.1624 66.4609C72.4315 66.8809 72.5699 67.3713 72.5601 67.87C72.5549 68.2005 72.4845 68.5267 72.3529 68.8299C72.2213 69.1331 72.0311 69.4073 71.7932 69.6368C71.5553 69.8663 71.2745 70.0466 70.9668 70.1672C70.6591 70.2879 70.3306 70.3466 70.0001 70.34Z" fill="white" stroke="white" stroke-miterlimit="10"/>
<path d="M69.9999 71.5198H69.9399C69.4535 71.5116 68.9735 71.4076 68.5274 71.2137C68.0812 71.0198 67.6777 70.7398 67.3399 70.3898C66.6641 69.6834 66.2945 68.7388 66.3113 67.7613C66.3282 66.7838 66.7302 65.8525 67.4299 65.1698C67.9546 64.6602 68.6189 64.3181 69.3384 64.1869C70.058 64.0556 70.8003 64.1412 71.4711 64.4326C72.1419 64.7241 72.711 65.2084 73.1061 65.8239C73.5011 66.4395 73.7043 67.1585 73.6899 67.8898C73.6867 68.3746 73.5859 68.8538 73.3934 69.2988C73.201 69.7438 72.9209 70.1454 72.5699 70.4798C71.8816 71.1483 70.9594 71.5214 69.9999 71.5198ZM69.9999 66.5198C69.8274 66.5183 69.6564 66.5511 69.4967 66.6163C69.337 66.6816 69.192 66.7779 69.0699 66.8998C68.945 67.0235 68.8459 67.1707 68.7783 67.3329C68.7106 67.4951 68.6758 67.6691 68.6758 67.8448C68.6758 68.0205 68.7106 68.1945 68.7783 68.3568C68.8459 68.519 68.945 68.6661 69.0699 68.7898C69.1921 68.9156 69.3382 69.0157 69.4996 69.0844C69.661 69.1531 69.8345 69.1889 70.0099 69.1898C70.1937 69.2079 70.3792 69.1839 70.5525 69.1198C70.7257 69.0557 70.8821 68.9531 71.0099 68.8198C71.1994 68.6353 71.3301 68.3989 71.3855 68.1403C71.4409 67.8817 71.4186 67.6125 71.3213 67.3666C71.224 67.1207 71.0561 66.909 70.8387 66.7584C70.6214 66.6077 70.3643 66.5247 70.0999 66.5198H69.9999Z" fill="white" stroke="white" stroke-miterlimit="10"/>
<path d="M63.0999 82.3302C62.6012 82.3222 62.116 82.1664 61.7059 81.8824C61.2958 81.5985 60.9792 81.1992 60.7962 80.7352C60.6131 80.2712 60.5719 79.7633 60.6778 79.2759C60.7836 78.7885 61.0317 78.3434 61.3906 77.997C61.7496 77.6507 62.2033 77.4187 62.6942 77.3304C63.1851 77.242 63.6912 77.3014 64.1483 77.5009C64.6055 77.7004 64.9932 78.0311 65.2623 78.4511C65.5313 78.8711 65.6697 79.3615 65.6599 79.8602C65.6468 80.5268 65.37 81.1611 64.8901 81.624C64.4103 82.087 63.7666 82.3409 63.0999 82.3302Z" fill="white" stroke="white" stroke-miterlimit="10"/>
<path d="M63.15 83.5101H63.08C62.2207 83.4881 61.3958 83.1685 60.7461 82.6057C60.0963 82.043 59.6622 81.2722 59.5177 80.4249C59.3732 79.5776 59.5273 78.7064 59.9539 77.9602C60.3804 77.214 61.0529 76.639 61.8563 76.3335C62.6597 76.0281 63.5443 76.011 64.3589 76.2853C65.1735 76.5596 65.8676 77.1083 66.3225 77.8375C66.7775 78.5667 66.9652 79.4313 66.8534 80.2835C66.7417 81.1358 66.3374 81.9228 65.7099 82.5101C65.0189 83.1633 64.1008 83.522 63.15 83.5101ZM63.15 81.1501C63.3251 81.1556 63.4994 81.1257 63.6627 81.0621C63.8259 80.9985 63.9746 80.9026 64.0999 80.7801C64.2279 80.659 64.3303 80.5134 64.4008 80.3519C64.4712 80.1904 64.5084 80.0163 64.51 79.8401C64.5159 79.5747 64.4429 79.3136 64.3002 79.0898C64.1574 78.866 63.9515 78.6896 63.7084 78.583C63.4653 78.4764 63.1959 78.4445 62.9346 78.4911C62.6733 78.5378 62.4318 78.661 62.2406 78.8452C62.0494 79.0293 61.9174 79.2661 61.8609 79.5254C61.8045 79.7848 61.8264 80.0551 61.9238 80.302C62.0212 80.5489 62.1897 80.7613 62.4081 80.9123C62.6264 81.0633 62.8846 81.1461 63.15 81.1501Z" fill="white" stroke="white" stroke-miterlimit="10"/>
<path d="M77.0001 58.9C76.5014 58.892 76.0162 58.7361 75.6061 58.4522C75.196 58.1683 74.8794 57.769 74.6964 57.305C74.5133 56.841 74.4721 56.3331 74.5779 55.8457C74.6838 55.3582 74.9319 54.9132 75.2908 54.5668C75.6498 54.2205 76.1035 53.9885 76.5944 53.9001C77.0853 53.8118 77.5914 53.8712 78.0485 54.0707C78.5057 54.2702 78.8934 54.6009 79.1624 55.0209C79.4315 55.4409 79.5699 55.9313 79.5601 56.43C79.5549 56.7605 79.4845 57.0867 79.3529 57.3899C79.2213 57.6931 79.0311 57.9673 78.7932 58.1968C78.5553 58.4263 78.2745 58.6066 77.9668 58.7272C77.6591 58.8479 77.3306 58.9066 77.0001 58.9Z" fill="white" stroke="white" stroke-miterlimit="10"/>
<path d="M77 60.0799C76.0521 60.0168 75.1649 59.5915 74.522 58.8921C73.8791 58.1927 73.5298 57.2728 73.5465 56.323C73.5632 55.3732 73.9446 54.4662 74.6117 53.7898C75.2788 53.1135 76.1805 52.7197 77.13 52.6899C78.0779 52.753 78.9652 53.1784 79.608 53.8777C80.2509 54.5771 80.6002 55.497 80.5835 56.4468C80.5668 57.3966 80.1854 58.3036 79.5183 58.98C78.8512 59.6563 77.9495 60.0501 77 60.0799ZM77 57.7199C77.1755 57.7291 77.351 57.7008 77.5148 57.6371C77.6786 57.5733 77.8269 57.4754 77.95 57.3499C78.079 57.2296 78.1819 57.0841 78.2524 56.9224C78.323 56.7607 78.3596 56.5863 78.36 56.4099C78.3644 56.2349 78.334 56.0608 78.2704 55.8977C78.2069 55.7346 78.1116 55.5858 77.99 55.4599C77.8683 55.3328 77.7225 55.231 77.5611 55.1607C77.3998 55.0903 77.226 55.0526 77.05 55.0499C76.6978 55.0497 76.3593 55.1861 76.1056 55.4304C75.8519 55.6747 75.703 56.0079 75.69 56.3599C75.6847 56.7136 75.8194 57.0551 76.0648 57.3099C76.3102 57.5646 76.6464 57.712 77 57.7199Z" fill="white" stroke="white" stroke-miterlimit="10"/>
<path d="M73.4499 43.5902C72.9507 43.5841 72.4646 43.43 72.0531 43.1472C71.6417 42.8645 71.3235 42.4659 71.1389 42.002C70.9544 41.5381 70.9118 41.0299 71.0165 40.5418C71.1212 40.0537 71.3685 39.6076 71.7271 39.2603C72.0857 38.913 72.5394 38.68 73.0306 38.5908C73.5218 38.5017 74.0284 38.5605 74.4862 38.7598C74.9439 38.959 75.3322 39.2898 75.6017 39.71C75.8712 40.1302 76.0098 40.6211 75.9999 41.1202C75.9947 41.4498 75.9246 41.7752 75.7936 42.0777C75.6627 42.3803 75.4734 42.654 75.2366 42.8834C74.9998 43.1128 74.7201 43.2932 74.4135 43.4145C74.107 43.5358 73.7795 43.5955 73.4499 43.5902Z" fill="white" stroke="white" stroke-miterlimit="10"/>
<path d="M73.5001 44.7699H73.4301C72.7009 44.756 71.9922 44.5263 71.3935 44.1098C70.7947 43.6933 70.3328 43.1087 70.0661 42.4299C69.7994 41.7511 69.7399 41.0084 69.895 40.2958C70.0501 39.5831 70.4129 38.9324 70.9377 38.4259C71.4624 37.9193 72.1254 37.5796 72.8431 37.4496C73.5608 37.3197 74.3008 37.4053 74.9699 37.6957C75.6389 37.9861 76.2069 38.4683 76.602 39.0813C76.9972 39.6943 77.2018 40.4107 77.1901 41.1399C77.1718 42.1073 76.7753 43.029 76.0855 43.7076C75.3958 44.3861 74.4677 44.7675 73.5001 44.7699ZM73.5001 42.4099C73.6838 42.4265 73.8689 42.4019 74.0419 42.3379C74.2149 42.2739 74.3714 42.1721 74.5001 42.0399C74.6291 41.9196 74.732 41.7741 74.8025 41.6124C74.8731 41.4507 74.9097 41.2763 74.9101 41.0999C74.9214 40.9167 74.8943 40.7331 74.8306 40.5609C74.7669 40.3887 74.6679 40.2317 74.5401 40.0999C74.3563 39.9109 74.1207 39.7804 73.863 39.7246C73.6053 39.6689 73.3369 39.6904 73.0914 39.7865C72.8458 39.8826 72.6341 40.0489 72.4827 40.2648C72.3313 40.4806 72.2469 40.7363 72.2401 40.9999C72.2361 41.1754 72.2669 41.35 72.3307 41.5135C72.3945 41.677 72.4901 41.8263 72.6119 41.9527C72.7337 42.0792 72.8793 42.1802 73.0403 42.2501C73.2013 42.32 73.3746 42.3573 73.5501 42.3599L73.5001 42.4099Z" fill="white" stroke="white" stroke-miterlimit="10"/>
<path d="M51.52 58.5699C51.0217 58.5619 50.5369 58.4064 50.127 58.1229C49.7171 57.8395 49.4004 57.4408 49.217 56.9774C49.0337 56.514 48.9918 56.0066 49.0968 55.5194C49.2018 55.0322 49.4489 54.587 49.8069 54.2403C50.1648 53.8935 50.6176 53.6607 51.1079 53.5712C51.5982 53.4817 52.104 53.5396 52.5613 53.7376C53.0187 53.9356 53.4071 54.2647 53.6774 54.6834C53.9477 55.1021 54.0878 55.5916 54.08 56.0899C54.0761 56.4212 54.0066 56.7485 53.8756 57.0529C53.7446 57.3572 53.5546 57.6326 53.3166 57.8632C53.0786 58.0938 52.7973 58.2749 52.4889 58.3962C52.1806 58.5175 51.8513 58.5765 51.52 58.5699Z" fill="white" stroke="white" stroke-miterlimit="10"/>
<path d="M51.5701 59.7399H51.5001C51.0155 59.7314 50.5374 59.6275 50.093 59.4342C49.6485 59.2408 49.2465 58.9619 48.9099 58.6132C48.2301 57.909 47.8579 56.9636 47.8751 55.9849C47.8924 55.0063 48.2977 54.0745 49.0019 53.3947C49.7061 52.7149 50.6515 52.3427 51.6301 52.3599C52.1146 52.3654 52.5931 52.4672 53.0377 52.6595C53.4824 52.8518 53.8843 53.1307 54.2201 53.4799C54.5587 53.8287 54.825 54.2409 55.0038 54.6928C55.1825 55.1448 55.2703 55.6276 55.2619 56.1136C55.2536 56.5996 55.1493 57.0791 54.955 57.5247C54.7608 57.9702 54.4805 58.373 54.1301 58.7099C53.4445 59.375 52.5254 59.7448 51.5701 59.7399ZM51.5701 54.7399C51.223 54.7432 50.8903 54.8792 50.6401 55.1199C50.4506 55.3044 50.3199 55.5408 50.2645 55.7994C50.2091 56.058 50.2315 56.3272 50.3288 56.5731C50.4261 56.819 50.5939 57.0307 50.8113 57.1814C51.0286 57.332 51.2857 57.415 51.5501 57.4199C51.7342 57.4305 51.9184 57.4021 52.0907 57.3366C52.263 57.2712 52.4196 57.17 52.5501 57.0399C52.6773 56.9182 52.779 56.7724 52.8494 56.611C52.9197 56.4497 52.9574 56.2759 52.9601 56.0999C52.9641 55.9244 52.9333 55.7499 52.8695 55.5863C52.8057 55.4228 52.7101 55.2735 52.5884 55.1471C52.4666 55.0207 52.321 54.9196 52.1599 54.8497C51.9989 54.7798 51.8256 54.7425 51.6501 54.7399H51.5701Z" fill="white" stroke="white" stroke-miterlimit="10"/>
<path d="M41.1401 53.09C40.6418 53.082 40.157 52.9265 39.7471 52.643C39.3372 52.3595 39.0206 51.9609 38.8372 51.4975C38.6538 51.034 38.612 50.5267 38.717 50.0395C38.822 49.5523 39.0691 49.1071 39.427 48.7604C39.785 48.4136 40.2377 48.1807 40.728 48.0913C41.2183 48.0018 41.7241 48.0597 42.1815 48.2577C42.6389 48.4557 43.0273 48.7848 43.2976 49.2035C43.5679 49.6222 43.708 50.1117 43.7001 50.61C43.6949 50.9409 43.6246 51.2676 43.4931 51.5714C43.3616 51.8751 43.1716 52.15 42.9338 52.3803C42.6961 52.6106 42.4154 52.7918 42.1076 52.9136C41.7998 53.0353 41.4711 53.0953 41.1401 53.09Z" fill="white" stroke="white" stroke-miterlimit="10"/>
<path d="M41.19 54.26H41.12C40.6354 54.2515 40.1573 54.1476 39.7129 53.9542C39.2684 53.7609 38.8664 53.4819 38.5298 53.1333C38.1932 52.7846 37.9286 52.373 37.751 51.922C37.5735 51.4711 37.4865 50.9896 37.495 50.505C37.5036 50.0204 37.6075 49.5423 37.8008 49.0978C37.9941 48.6534 38.2731 48.2514 38.6218 47.9148C38.9704 47.5782 39.382 47.3136 39.833 47.136C40.2839 46.9585 40.7654 46.8715 41.25 46.88C41.7348 46.8832 42.214 46.984 42.659 47.1765C43.104 47.3689 43.5056 47.649 43.84 48C44.1724 48.3504 44.432 48.7633 44.6036 49.2148C44.7753 49.6662 44.8556 50.1473 44.84 50.63C44.8244 51.5913 44.4343 52.5086 43.7525 53.1866C43.0708 53.8646 42.1514 54.2497 41.19 54.26ZM41.19 51.91C41.5402 51.9074 41.8755 51.7678 42.1241 51.5211C42.3727 51.2744 42.5148 50.9402 42.52 50.59C42.5319 50.4067 42.5051 50.2229 42.4414 50.0506C42.3776 49.8784 42.2784 49.7214 42.15 49.59C41.901 49.3377 41.5644 49.1908 41.21 49.18C41.026 49.17 40.842 49.1987 40.6698 49.2642C40.4976 49.3296 40.341 49.4304 40.21 49.56C40.021 49.7439 39.8905 49.9794 39.8347 50.2371C39.779 50.4948 39.8005 50.7632 39.8966 51.0087C39.9927 51.2543 40.159 51.466 40.3749 51.6174C40.5907 51.7688 40.8464 51.8532 41.11 51.86L41.19 51.91Z" fill="white" stroke="white" stroke-miterlimit="10"/>
<path d="M30.7699 47.6101C30.2711 47.6041 29.7854 47.4502 29.3741 47.1679C28.9629 46.8856 28.6446 46.4877 28.4597 46.0244C28.2749 45.5611 28.2316 45.0534 28.3355 44.5655C28.4394 44.0776 28.6857 43.6315 29.0433 43.2838C29.4009 42.936 29.8536 42.7022 30.3442 42.6119C30.8348 42.5216 31.3411 42.579 31.7991 42.7767C32.257 42.9744 32.646 43.3036 32.9168 43.7225C33.1875 44.1415 33.3278 44.6314 33.3199 45.1301C33.316 45.4606 33.2469 45.787 33.1165 46.0907C32.9861 46.3944 32.797 46.6694 32.5601 46.8998C32.3231 47.1302 32.043 47.3116 31.7358 47.4335C31.4286 47.5554 31.1004 47.6154 30.7699 47.6101Z" fill="white" stroke="white" stroke-miterlimit="10"/>
<path d="M30.8101 48.7798H30.7501C30.0204 48.7657 29.3111 48.5361 28.7115 48.1199C28.112 47.7036 27.6489 47.1194 27.3806 46.4406C27.1123 45.7618 27.0508 45.0189 27.2037 44.3052C27.3566 43.5915 27.7172 42.939 28.2401 42.4298C28.9554 41.7704 29.8974 41.4123 30.8701 41.4298C31.5999 41.4439 32.3091 41.6735 32.9087 42.0897C33.5083 42.506 33.9713 43.0902 34.2396 43.769C34.5079 44.4478 34.5695 45.1907 34.4165 45.9044C34.2636 46.6181 33.903 47.2706 33.3801 47.7798C32.6849 48.4327 31.7638 48.7911 30.8101 48.7798ZM30.8101 46.4298C30.9859 46.4334 31.1605 46.4017 31.3238 46.3364C31.487 46.2711 31.6354 46.1736 31.7601 46.0498C31.8873 45.928 31.989 45.7823 32.0594 45.6209C32.1297 45.4595 32.1674 45.2858 32.1701 45.1098C32.1728 44.7552 32.0359 44.4137 31.7889 44.1592C31.5419 43.9047 31.2047 43.7577 30.8501 43.7498C30.4955 43.7471 30.154 43.884 29.8995 44.131C29.6451 44.378 29.498 44.7152 29.4901 45.0698C29.4826 45.2535 29.5124 45.4368 29.5777 45.6087C29.643 45.7806 29.7425 45.9375 29.8701 46.0698C29.9919 46.1969 30.1377 46.2987 30.299 46.369C30.4604 46.4394 30.6341 46.4771 30.8101 46.4798V46.4298Z" fill="white" stroke="white" stroke-miterlimit="10"/>
<path d="M42.4799 75.6899C41.9794 75.6898 41.4902 75.5407 41.0748 75.2615C40.6594 74.9823 40.3365 74.5857 40.1473 74.1224C39.9582 73.659 39.9113 73.1497 40.0126 72.6596C40.114 72.1694 40.359 71.7206 40.7164 71.3702C41.0739 71.0199 41.5276 70.7839 42.0197 70.6924C42.5117 70.6009 43.0199 70.658 43.4794 70.8564C43.9389 71.0548 44.3289 71.3856 44.5997 71.8065C44.8705 72.2274 45.0098 72.7195 44.9999 73.2199C44.9868 73.8795 44.7156 74.5077 44.2444 74.9696C43.7732 75.4314 43.1397 75.69 42.4799 75.6899Z" fill="white" stroke="white" stroke-miterlimit="10"/>
<path d="M42.52 76.8702H42.46C41.9746 76.8624 41.4954 76.7589 41.0501 76.5655C40.6047 76.3722 40.2018 76.0929 39.8646 75.7436C39.5274 75.3943 39.2624 74.9819 39.0849 74.53C38.9074 74.0781 38.8207 73.5956 38.83 73.1102C38.8419 72.6222 38.9516 72.1415 39.1526 71.6967C39.3535 71.2518 39.6417 70.8517 40 70.5202C40.7148 69.86 41.6572 69.5016 42.63 69.5202C43.5768 69.5766 44.4657 69.9944 45.1133 70.6873C45.7609 71.3802 46.1177 72.2953 46.11 73.2437C46.1023 74.1921 45.7307 75.1013 45.0719 75.7836C44.4132 76.4659 43.5175 76.8692 42.57 76.9102L42.52 76.8702ZM42.52 74.5102C42.8541 74.4813 43.1653 74.3281 43.3919 74.0809C43.6186 73.8338 43.7444 73.5106 43.7444 73.1752C43.7444 72.8398 43.6186 72.5167 43.3919 72.2695C43.1653 72.0223 42.8541 71.8691 42.52 71.8402C42.3442 71.836 42.1694 71.8675 42.0061 71.9328C41.8428 71.9981 41.6944 72.0959 41.57 72.2202C41.4432 72.3401 41.3416 72.4841 41.2712 72.6438C41.2007 72.8035 41.163 72.9757 41.16 73.1502C41.153 73.3339 41.1831 73.517 41.2484 73.6888C41.3137 73.8606 41.4128 74.0175 41.54 74.1502C41.6623 74.276 41.8084 74.3761 41.9698 74.4448C42.1311 74.5135 42.3046 74.5493 42.48 74.5502L42.52 74.5102Z" fill="white" stroke="white" stroke-miterlimit="10"/>
<path d="M32.0999 70.2101C31.6012 70.2021 31.116 70.0462 30.7059 69.7623C30.2958 69.4784 29.9792 69.0791 29.7962 68.6151C29.6131 68.1511 29.5719 67.6432 29.6778 67.1558C29.7836 66.6683 30.0317 66.2233 30.3906 65.8769C30.7496 65.5306 31.2033 65.2986 31.6942 65.2102C32.1851 65.1219 32.6912 65.1813 33.1483 65.3808C33.6055 65.5803 33.9932 65.911 34.2623 66.331C34.5313 66.751 34.6697 67.2414 34.6599 67.7401C34.6547 68.0706 34.5843 68.3968 34.4527 68.7C34.3211 69.0032 34.1309 69.2774 33.893 69.5069C33.6551 69.7364 33.3743 69.9167 33.0666 70.0373C32.7589 70.158 32.4304 70.2167 32.0999 70.2101Z" fill="white" stroke="white" stroke-miterlimit="10"/>
<path d="M32.1499 71.3899H32.0799C31.3403 71.3869 30.6186 71.1616 30.0085 70.7433C29.3985 70.3251 28.9282 69.7332 28.6587 69.0444C28.3892 68.3555 28.3329 67.6016 28.4972 66.8804C28.6615 66.1592 29.0387 65.504 29.5799 64.9999C30.1046 64.4903 30.7689 64.1482 31.4885 64.017C32.208 63.8857 32.9503 63.9713 33.6211 64.2627C34.292 64.5542 34.861 65.0385 35.2561 65.654C35.6511 66.2696 35.8543 66.9886 35.8399 67.7199C35.8216 68.6873 35.4251 69.609 34.7353 70.2876C34.0456 70.9661 33.1175 71.3474 32.1499 71.3499V71.3899ZM32.1499 66.3899C31.8006 66.3898 31.4653 66.5272 31.2165 66.7723C30.9676 67.0175 30.8252 67.3506 30.8199 67.6999C30.8251 68.0431 30.9637 68.3707 31.2064 68.6134C31.4491 68.8561 31.7767 68.9947 32.1199 68.9999C32.3035 69.0151 32.4882 68.9898 32.661 68.9259C32.8338 68.862 32.9904 68.7609 33.1199 68.6299C33.3089 68.446 33.4394 68.2105 33.4952 67.9528C33.5509 67.6951 33.5294 67.4267 33.4334 67.1811C33.3373 66.9356 33.1709 66.7239 32.9551 66.5725C32.7392 66.421 32.4835 66.3367 32.2199 66.3299L32.1499 66.3899Z" fill="white" stroke="white" stroke-miterlimit="10"/>
<path d="M21.72 64.7301C21.2213 64.7221 20.7361 64.5663 20.326 64.2823C19.9159 63.9984 19.5993 63.5991 19.4163 63.1351C19.2332 62.6711 19.192 62.1632 19.2978 61.6758C19.4037 61.1884 19.6518 60.7433 20.0107 60.3969C20.3697 60.0506 20.8234 59.8186 21.3143 59.7303C21.8052 59.6419 22.3113 59.7013 22.7684 59.9008C23.2256 60.1003 23.6133 60.431 23.8824 60.851C24.1514 61.271 24.2898 61.7614 24.28 62.2601C24.2748 62.5906 24.2044 62.9168 24.0728 63.22C23.9412 63.5232 23.751 63.7974 23.5131 64.0269C23.2752 64.2564 22.9944 64.4367 22.6867 64.5574C22.379 64.678 22.0505 64.7367 21.72 64.7301Z" fill="white" stroke="white" stroke-miterlimit="10"/>
<path d="M21.7699 65.91H21.6999C20.7521 65.8468 19.8648 65.4215 19.2219 64.7222C18.579 64.0228 18.2297 63.1029 18.2464 62.1531C18.2632 61.2033 18.6446 60.2963 19.3117 59.6199C19.9787 58.9436 20.8804 58.5498 21.8299 58.52C22.7767 58.5764 23.6656 58.9941 24.3132 59.687C24.9608 60.38 25.3176 61.2951 25.3099 62.2435C25.3022 63.1919 24.9306 64.1011 24.2718 64.7834C23.6131 65.4657 22.7175 65.869 21.7699 65.91ZM21.7699 60.91C21.4197 60.9099 21.0833 61.047 20.8329 61.2918C20.5824 61.5366 20.4378 61.8698 20.4299 62.22C20.4211 62.403 20.4493 62.5859 20.5128 62.7578C20.5764 62.9296 20.6741 63.0868 20.7999 63.22C21.0482 63.4722 21.3861 63.616 21.7399 63.62C21.9239 63.6403 22.1101 63.6175 22.2837 63.5533C22.4573 63.489 22.6135 63.3852 22.7399 63.25C22.9897 62.9989 23.1299 62.6591 23.1299 62.305C23.1299 61.9508 22.9897 61.6111 22.7399 61.36C22.6182 61.2328 22.4724 61.1311 22.311 61.0607C22.1497 60.9904 21.976 60.9527 21.7999 60.95L21.7699 60.91Z" fill="white" stroke="white" stroke-miterlimit="10"/>
</svg>
