<svg width="235" height="157" viewBox="0 0 235 157" fill="none" xmlns="http://www.w3.org/2000/svg">
<g clip-path="url(#clip0_1002_49)">
<path d="M17.3901 79.9071C18.1741 80.2791 18.8301 80.8771 19.2731 81.6231C19.7171 82.3691 19.9281 83.2301 19.8801 84.0971C19.9091 84.6241 19.8201 85.1511 19.6191 85.6381C19.4191 86.1261 19.1111 86.5631 18.7201 86.9171C17.8751 87.6041 16.8081 87.9601 15.7201 87.9171C14.9731 87.9441 14.2311 87.7861 13.5601 87.4571C13.7631 86.6741 13.8611 85.8671 13.8501 85.0571C13.9041 84.1381 13.6511 83.2271 13.1301 82.4671C12.8461 82.1431 12.4901 81.8911 12.0901 81.7291C11.6911 81.5681 11.2591 81.5021 10.8301 81.5371C10.0351 81.4961 9.25509 81.7611 8.65009 82.2771C8.37209 82.5531 8.15611 82.8841 8.01611 83.2501C7.87611 83.6151 7.81609 84.0061 7.84009 84.3971C7.82609 85.2881 8.08809 86.1611 8.59009 86.8971C9.08209 87.6351 9.70512 88.2761 10.4301 88.7871C11.1601 89.3171 12.1601 89.9471 13.4301 90.6971C14.6611 91.4171 15.8521 92.2021 17.0001 93.0471C17.9491 93.7561 18.7501 94.6421 19.3601 95.6571C20.0441 96.7941 20.3911 98.1011 20.3601 99.4271C20.4321 100.62 20.2041 101.813 19.6981 102.896C19.1911 103.978 18.4221 104.917 17.4601 105.627C15.2311 107.104 12.5911 107.835 9.92011 107.717C7.67811 107.787 5.45212 107.317 3.43012 106.347C2.60112 105.953 1.90913 105.322 1.44013 104.533C0.972126 103.744 0.749111 102.833 0.800111 101.917C0.779111 101.37 0.875094 100.824 1.08209 100.317C1.28909 99.8101 1.60212 99.3531 2.00012 98.9771C2.40212 98.6021 2.8741 98.3111 3.3891 98.1181C3.9031 97.9261 4.45112 97.8371 5.00012 97.8571C5.74712 97.8211 6.4901 97.9761 7.1601 98.3071C6.9811 99.0271 6.88412 99.7651 6.87012 100.507C6.87012 103.38 8.05712 104.817 10.4301 104.817C11.4151 104.86 12.3801 104.527 13.1301 103.887C13.4691 103.566 13.7331 103.176 13.9061 102.742C14.0791 102.309 14.1551 101.843 14.1301 101.377C14.1431 100.485 13.8851 99.6101 13.3901 98.8671C12.8851 98.1271 12.2521 97.4841 11.5201 96.9671C10.7801 96.4271 9.78008 95.7771 8.52008 95.0371C7.03008 94.1471 5.82008 93.3671 4.89008 92.6771C3.94408 91.9661 3.14309 91.0801 2.53009 90.0671C1.85409 88.9421 1.50709 87.6501 1.53009 86.3371C1.51909 84.8331 2.01212 83.3691 2.93012 82.1771C3.84612 80.9921 5.07109 80.0821 6.47009 79.5471C8.00709 78.9401 9.64811 78.6371 11.3001 78.6571C13.4011 78.5831 15.4891 79.0111 17.3901 79.9071Z" fill="white"/>
<path d="M40.1301 87.7869C41.8031 89.7469 42.6371 92.4669 42.6301 95.9469C42.6301 99.5339 41.7871 102.394 40.1001 104.527C38.4131 106.661 35.9271 107.724 32.6401 107.717C29.3801 107.717 26.9001 106.717 25.1801 104.647C23.4601 102.577 22.6201 99.8469 22.6201 96.3569C22.6201 92.8669 23.4601 90.0169 25.1601 87.9469C26.8601 85.8769 29.3601 84.8369 32.6401 84.8369C35.9201 84.8369 38.4501 85.8169 40.1301 87.7869ZM35.4201 102.707C35.8681 100.561 36.0631 98.3689 36.0001 96.1769C36.0461 94.0509 35.8241 91.9279 35.3401 89.8569C34.9001 88.1869 33.9901 87.3469 32.6001 87.3469C31.2101 87.3469 30.3101 88.1869 29.8701 89.8769C29.3871 91.9409 29.1661 94.0579 29.2101 96.1769C29.1591 98.3769 29.3671 100.576 29.8301 102.727C30.2401 104.407 31.1701 105.247 32.6001 105.247C34.0301 105.247 35.0001 104.387 35.4201 102.707Z" fill="white"/>
<path d="M53 90.0868C52.698 91.6488 52.56 93.2368 52.59 94.8268V106.827H46.2V85.6668L51.38 85.1668L51.67 88.8968C52.054 87.6958 52.806 86.6458 53.82 85.8968C54.847 85.1678 56.081 84.7898 57.34 84.8168C58.024 84.7818 58.709 84.8838 59.353 85.1178C59.997 85.3508 60.587 85.7118 61.09 86.1768C61.564 86.6588 61.933 87.2338 62.172 87.8658C62.411 88.4978 62.516 89.1718 62.48 89.8468C62.542 90.3878 62.482 90.9348 62.303 91.4488C62.124 91.9618 61.831 92.4288 61.446 92.8138C61.062 93.1978 60.595 93.4908 60.082 93.6698C59.568 93.8488 59.02 93.9098 58.48 93.8468C58.12 93.8418 57.761 93.7978 57.41 93.7168C57.087 93.6728 56.776 93.5608 56.5 93.3868C56.704 92.6888 56.802 91.9638 56.79 91.2368C56.79 89.2368 56.14 88.2368 54.84 88.2368C53.86 88.2368 53.23 88.8568 53 90.0868Z" fill="white"/>
<path d="M62.4 87.5369V86.2469C63.804 85.7039 65.146 85.0099 66.4 84.1769C67.64 83.3899 68.7701 82.4419 69.7601 81.3569H71.54V85.6669H75.35V87.5369H71.5001V102.287C71.4531 102.986 71.617 103.683 71.97 104.287C72.158 104.532 72.3931 104.736 72.6611 104.889C72.9291 105.041 73.224 105.14 73.53 105.177C73.238 105.895 72.6941 106.482 72.0001 106.827C71.2371 107.233 70.384 107.439 69.52 107.427C68.926 107.47 68.3301 107.389 67.7681 107.189C67.2071 106.989 66.6941 106.675 66.2601 106.267C65.4741 105.332 65.083 104.126 65.17 102.907V87.5369H62.4Z" fill="white"/>
<path d="M94.0001 102.367C94.0251 103.444 93.6221 104.487 92.8801 105.267C92.0861 106.105 91.0961 106.734 90.0001 107.097C88.8371 107.507 87.6131 107.717 86.3801 107.717C83.0471 107.717 80.537 106.717 78.85 104.717C77.15 102.717 76.3 99.9372 76.3 96.4372C76.3 92.9372 77.2201 89.9771 79.0601 87.9372C80.9001 85.8972 83.5601 84.8672 87.0601 84.8672C89.0261 84.7872 90.967 85.3262 92.61 86.4072C93.332 86.9072 93.914 87.5852 94.299 88.3752C94.684 89.1642 94.8601 90.0402 94.8101 90.9172C94.8101 93.3772 93.94 95.0772 92.2 96.0172C89.973 97.0602 87.5261 97.5442 85.0701 97.4272C84.3351 97.4392 83.6001 97.3992 82.8701 97.3072C82.8681 98.9132 83.2551 100.495 84.0001 101.917C84.3601 102.486 84.869 102.946 85.472 103.245C86.075 103.545 86.749 103.674 87.42 103.617C88.559 103.627 89.681 103.333 90.67 102.767C91.652 102.204 92.4391 101.357 92.9301 100.337C93.2951 100.525 93.594 100.82 93.785 101.183C93.977 101.547 94.0521 101.96 94.0001 102.367ZM83.6801 89.7072C83.1371 91.5452 82.8641 93.4512 82.8701 95.3672H83.7C85.101 95.4952 86.506 95.1622 87.7 94.4172C88.179 93.9992 88.5521 93.4722 88.7861 92.8802C89.0211 92.2892 89.112 91.6502 89.05 91.0172C89.081 90.0912 88.856 89.1742 88.4 88.3672C88.211 88.0272 87.932 87.7462 87.593 87.5552C87.254 87.3642 86.869 87.2722 86.48 87.2872C85.11 87.2872 84.1901 88.0972 83.6801 89.7072Z" fill="white"/>
<path d="M107.74 107.057C106.678 107.51 105.534 107.734 104.38 107.717C102.452 107.778 100.559 107.194 99 106.057C98.287 105.528 97.715 104.831 97.333 104.029C96.951 103.228 96.772 102.345 96.81 101.457C96.739 100.3 97.054 99.1517 97.706 98.1927C98.357 97.2337 99.308 96.5178 100.41 96.1568C103.325 95.1338 106.402 94.6557 109.49 94.7467V91.1768C109.547 90.1488 109.362 89.1208 108.95 88.1768C108.732 87.8248 108.417 87.5428 108.043 87.3658C107.668 87.1878 107.251 87.1228 106.84 87.1768C106.412 87.1508 105.984 87.2168 105.584 87.3708C105.183 87.5238 104.821 87.7618 104.52 88.0668C103.937 88.7378 103.639 89.6098 103.69 90.4968C103.715 91.1698 103.799 91.8387 103.94 92.4967C103.672 92.6607 103.372 92.7668 103.06 92.8068C102.707 92.8728 102.349 92.9058 101.99 92.9068C100.988 92.9458 99.999 92.6628 99.17 92.0968C98.781 91.8328 98.469 91.4708 98.264 91.0478C98.058 90.6248 97.967 90.1558 98 89.6868C98 88.1138 98.89 86.9138 100.67 86.0868C102.69 85.2078 104.878 84.7818 107.08 84.8368C110.06 84.8368 112.257 85.4338 113.67 86.6268C115.07 87.8068 115.78 89.8168 115.78 92.6268V102.627C115.772 103.305 115.87 103.98 116.07 104.627C116.267 105.217 116.611 105.748 117.07 106.167C116.719 106.587 116.253 106.896 115.73 107.057C115.149 107.263 114.537 107.367 113.92 107.367C113.02 107.4 112.129 107.178 111.35 106.727C110.668 106.308 110.168 105.648 109.95 104.877C109.493 105.842 108.71 106.614 107.74 107.057ZM108.74 103.527C109.279 102.538 109.544 101.423 109.51 100.297V96.8168C105.417 96.8168 103.37 98.3108 103.37 101.297C103.332 102.216 103.603 103.121 104.14 103.867C104.403 104.2 104.741 104.464 105.128 104.638C105.514 104.813 105.937 104.891 106.36 104.867C106.838 104.887 107.312 104.772 107.727 104.535C108.143 104.298 108.483 103.949 108.71 103.527H108.74Z" fill="white"/>
<path d="M139.11 104.687C139.307 105.277 139.651 105.807 140.11 106.227C139.759 106.647 139.293 106.956 138.77 107.117C138.189 107.322 137.577 107.427 136.96 107.427C136.063 107.46 135.176 107.238 134.4 106.787C133.719 106.367 133.22 105.707 133 104.937C132.487 105.858 131.696 106.593 130.74 107.037C129.702 107.501 128.576 107.733 127.44 107.717C126.215 107.806 124.99 107.553 123.9 106.986C122.811 106.419 121.9 105.561 121.27 104.507C119.894 101.953 119.227 99.0762 119.34 96.1772C119.34 92.6072 120.2 89.8372 121.91 87.8472C123.62 85.8572 126.19 84.8472 129.62 84.8472C130.584 84.8272 131.546 84.9382 132.48 85.1772V77.7972L138.82 77.1372V102.657C138.808 103.345 138.906 104.03 139.11 104.687ZM129.5 87.3272C128.815 87.3052 128.145 87.5352 127.618 87.9732C127.09 88.4122 126.743 89.0292 126.64 89.7072C126.14 91.7482 125.915 93.8472 125.97 95.9472C125.924 98.0622 126.156 100.173 126.66 102.227C127.11 103.897 128.04 104.737 129.45 104.737C129.918 104.757 130.381 104.643 130.785 104.407C131.19 104.171 131.518 103.824 131.73 103.407C132.257 102.414 132.515 101.301 132.48 100.177V88.3172C131.616 87.6812 130.573 87.3352 129.5 87.3272Z" fill="white"/>
<path d="M160.22 87.7869C161.9 89.7869 162.73 92.4669 162.73 95.9469C162.73 99.4269 161.89 102.397 160.2 104.527C158.51 106.657 156.03 107.717 152.74 107.717C149.45 107.717 147 106.717 145.28 104.647C143.56 102.577 142.71 99.8469 142.71 96.3569C142.71 92.8669 143.56 90.0169 145.26 87.9469C146.96 85.8769 149.46 84.8369 152.74 84.8369C156.02 84.8369 158.55 85.8169 160.22 87.7869ZM155.52 102.707C155.983 100.556 156.191 98.3569 156.14 96.1569C156.186 94.0309 155.964 91.9079 155.48 89.8369C155.04 88.1669 154.13 87.3269 152.74 87.3269C151.35 87.3269 150.45 88.1669 150.01 89.8569C149.527 91.9209 149.306 94.0379 149.35 96.1569C149.299 98.3569 149.507 100.556 149.97 102.707C150.38 104.387 151.31 105.227 152.74 105.227C154.17 105.227 155.11 104.387 155.52 102.707Z" fill="white"/>
<path d="M173.05 90.0868C172.743 91.6478 172.605 93.2368 172.64 94.8268V106.827H166.3V85.6668L171.48 85.1668L171.77 88.8968C172.154 87.6958 172.906 86.6458 173.92 85.8968C174.947 85.1678 176.181 84.7898 177.44 84.8168C178.124 84.7818 178.809 84.8838 179.453 85.1178C180.097 85.3508 180.687 85.7118 181.19 86.1768C181.664 86.6588 182.033 87.2338 182.272 87.8658C182.511 88.4978 182.616 89.1718 182.58 89.8468C182.642 90.3878 182.582 90.9348 182.403 91.4488C182.224 91.9618 181.931 92.4288 181.546 92.8138C181.162 93.1978 180.695 93.4908 180.182 93.6698C179.668 93.8488 179.12 93.9098 178.58 93.8468C178.22 93.8418 177.861 93.7978 177.51 93.7168C177.187 93.6728 176.876 93.5608 176.6 93.3868C176.804 92.6888 176.902 91.9638 176.89 91.2368C176.89 89.2368 176.223 88.2368 174.89 88.2368C174 88.2368 173.33 88.8568 173.05 90.0868Z" fill="white"/>
<path d="M210.56 104.687C210.757 105.277 211.101 105.807 211.56 106.227C211.207 106.65 210.737 106.959 210.21 107.117C209.632 107.323 209.023 107.428 208.41 107.427C207.51 107.46 206.619 107.238 205.84 106.787C205.158 106.366 204.656 105.707 204.43 104.937C203.922 105.862 203.13 106.599 202.17 107.037C201.136 107.5 200.013 107.732 198.88 107.717C197.654 107.806 196.427 107.552 195.336 106.986C194.245 106.419 193.333 105.561 192.7 104.507C191.331 101.944 190.674 99.0602 190.8 96.1572C190.8 92.5872 191.65 89.8172 193.37 87.8272C195.09 85.8372 197.65 84.8272 201.08 84.8272C202.044 84.8072 203.006 84.9182 203.94 85.1572V77.7972L210.28 77.1372V102.657C210.26 103.345 210.355 104.031 210.56 104.687ZM200.94 87.3272C200.255 87.3072 199.586 87.5382 199.06 87.9762C198.533 88.4142 198.185 89.0302 198.08 89.7072C197.589 91.7492 197.367 93.8472 197.42 95.9472C197.376 98.0612 197.605 100.172 198.1 102.227C198.56 103.897 199.49 104.737 200.9 104.737C201.367 104.755 201.83 104.639 202.233 104.404C202.637 104.168 202.966 103.823 203.18 103.407C203.707 102.414 203.965 101.301 203.93 100.177V88.3172C203.062 87.6812 202.016 87.3352 200.94 87.3272Z" fill="white"/>
<path d="M231.86 102.367C231.88 103.443 231.478 104.484 230.74 105.267C229.943 106.102 228.954 106.731 227.86 107.097C226.693 107.507 225.466 107.716 224.23 107.717C220.897 107.717 218.39 106.717 216.71 104.717C215.01 102.717 214.16 99.9368 214.16 96.4368C214.16 92.9368 215.08 89.9768 216.92 87.9368C218.76 85.8968 221.41 84.8668 224.92 84.8668C226.889 84.7888 228.833 85.3268 230.48 86.4068C231.2 86.9098 231.779 87.5878 232.162 88.3768C232.546 89.1668 232.72 90.0408 232.67 90.9168C232.67 93.3768 231.8 95.0768 230.06 96.0168C227.837 97.0598 225.393 97.5438 222.94 97.4268C222.205 97.4398 221.47 97.3998 220.74 97.3068C220.731 98.9238 221.123 100.519 221.88 101.947C222.24 102.517 222.749 102.976 223.352 103.276C223.955 103.575 224.629 103.704 225.3 103.647C226.44 103.657 227.561 103.364 228.55 102.797C229.527 102.229 230.314 101.383 230.81 100.367C231.166 100.556 231.457 100.848 231.644 101.205C231.832 101.562 231.907 101.967 231.86 102.367ZM221.52 89.7068C220.977 91.5448 220.704 93.4508 220.71 95.3668H221.54C222.941 95.4948 224.346 95.1618 225.54 94.4168C226.017 93.9978 226.388 93.4708 226.621 92.8788C226.854 92.2878 226.943 91.6498 226.88 91.0168C226.914 90.0918 226.692 89.1748 226.24 88.3668C226.051 88.0258 225.77 87.7428 225.429 87.5528C225.088 87.3618 224.7 87.2698 224.31 87.2868C223 87.2868 222 88.0968 221.52 89.7068Z" fill="white"/>
<path d="M14.34 123.737L20.72 148.667H14.34L12.9 142.507H5.89996L4.5 148.667H0L6.87 123.737H14.34ZM6.63 139.527H12.22L9.38995 127.437L6.63 139.527Z" fill="white"/>
<path d="M22.8801 129.407L27.6001 128.947L27.8601 132.347C28.8601 129.877 30.7901 128.647 33.7901 128.647C35.0121 128.59 36.2271 128.87 37.3001 129.457C38.2211 130.024 38.9251 130.883 39.3001 131.897C39.7681 130.851 40.5501 129.977 41.5371 129.395C42.5241 128.812 43.6681 128.551 44.8101 128.647C46.9801 128.647 48.5101 129.237 49.4201 130.427C50.4391 132.006 50.9161 133.873 50.7801 135.747V144.887C50.7671 145.515 50.8581 146.14 51.0501 146.737C51.2231 147.274 51.5341 147.757 51.9501 148.137C51.6171 148.523 51.1791 148.804 50.6901 148.947C50.1491 149.134 49.5821 149.232 49.0101 149.237C47.9171 149.314 46.8381 148.954 46.0101 148.237C45.6481 147.831 45.3731 147.356 45.2011 146.84C45.0291 146.324 44.9641 145.779 45.0101 145.237V136.047C45.0521 134.913 44.9131 133.779 44.6001 132.687C44.4631 132.308 44.2021 131.986 43.8591 131.773C43.5161 131.561 43.1111 131.471 42.7101 131.517C42.1841 131.49 41.6661 131.65 41.2471 131.969C40.8281 132.287 40.5351 132.744 40.4201 133.257C40.0181 134.709 39.8331 136.212 39.8701 137.717V148.667H34.1001V136.047C34.1461 134.905 34.0041 133.763 33.6801 132.667C33.5261 132.277 33.2451 131.951 32.8811 131.742C32.5181 131.533 32.0941 131.454 31.6801 131.517C31.1401 131.476 30.6021 131.622 30.1571 131.932C29.7121 132.242 29.3881 132.696 29.2401 133.217C28.8021 134.676 28.6031 136.195 28.6501 137.717V148.667H22.8801V129.407Z" fill="white"/>
<path d="M60.44 121.587C60.745 121.821 60.989 122.124 61.151 122.473C61.313 122.821 61.388 123.203 61.37 123.587C61.384 123.977 61.3 124.365 61.126 124.715C60.951 125.064 60.691 125.364 60.37 125.587C59.622 126.083 58.736 126.328 57.84 126.287C56.963 126.327 56.096 126.081 55.37 125.587C55.045 125.368 54.782 125.069 54.607 124.719C54.431 124.368 54.35 123.978 54.37 123.587C54.353 123.189 54.435 122.793 54.61 122.435C54.784 122.077 55.046 121.768 55.37 121.537C56.114 121.014 57.011 120.754 57.92 120.797C58.826 120.761 59.717 121.04 60.44 121.587ZM60.69 144.887C60.674 145.514 60.762 146.139 60.95 146.737C61.131 147.273 61.444 147.754 61.86 148.137C61.524 148.525 61.083 148.806 60.59 148.947C60.049 149.134 59.482 149.232 58.91 149.237C58.369 149.277 57.825 149.209 57.31 149.037C56.795 148.865 56.319 148.593 55.91 148.237C55.548 147.831 55.273 147.356 55.101 146.84C54.929 146.324 54.864 145.779 54.91 145.237V129.407H60.69V144.887Z" fill="white"/>
<path d="M75.2699 152.917C75.7749 152.079 76.0769 151.133 76.1499 150.157C76.2819 148.694 76.339 147.226 76.32 145.757V144.587C75.795 145.311 75.068 145.864 74.23 146.177C73.314 146.513 72.345 146.679 71.37 146.667C70.341 146.746 69.309 146.568 68.367 146.149C67.424 145.73 66.6 145.083 65.97 144.267C64.722 142.345 64.116 140.076 64.24 137.787C64.24 134.847 65 132.587 66.54 131.027C68.08 129.467 70.3 128.687 73.23 128.687C74.663 128.667 76.086 128.925 77.42 129.447L81.8399 128.837V144.837C81.8839 146.981 81.601 149.119 81 151.177C80.551 152.724 79.5609 154.059 78.2099 154.937C76.5259 155.86 74.6169 156.289 72.6999 156.177C70.9369 156.212 69.19 155.831 67.6 155.067C66.931 154.793 66.3609 154.324 65.9629 153.721C65.5649 153.118 65.358 152.409 65.37 151.687C65.342 151.273 65.419 150.859 65.594 150.484C65.769 150.108 66.036 149.782 66.37 149.537C67.135 149.029 68.0419 148.777 68.9599 148.817C69.5759 148.748 70.197 148.881 70.73 149.197C70.601 149.779 70.528 150.371 70.51 150.967C70.468 151.749 70.678 152.524 71.11 153.177C71.335 153.456 71.6249 153.675 71.9549 153.816C72.2839 153.958 72.643 154.016 73 153.987C73.439 154.024 73.8799 153.944 74.2779 153.756C74.6769 153.568 75.0189 153.279 75.2699 152.917ZM73.3399 130.917C72.7739 130.883 72.213 131.05 71.758 131.388C71.302 131.727 70.981 132.215 70.85 132.767C70.399 134.312 70.193 135.918 70.24 137.527C70.196 139.086 70.402 140.643 70.85 142.137C70.984 142.677 71.3019 143.153 71.7489 143.483C72.1959 143.813 72.745 143.977 73.3 143.947C73.732 143.969 74.161 143.864 74.534 143.645C74.907 143.427 75.2079 143.104 75.3999 142.717C75.8619 141.786 76.088 140.756 76.06 139.717V131.787C75.27 131.213 74.3169 130.908 73.3399 130.917Z" fill="white"/>
<path d="M101.2 131.327C102.72 133.114 103.48 135.594 103.48 138.767C103.627 141.56 102.815 144.319 101.18 146.587C100.355 147.573 99.31 148.35 98.128 148.856C96.947 149.361 95.662 149.581 94.38 149.497C93.109 149.579 91.8359 149.371 90.6579 148.887C89.4799 148.404 88.4269 147.658 87.5799 146.707C85.9309 144.554 85.102 141.885 85.24 139.177C85.09 136.428 85.911 133.713 87.56 131.507C89.113 129.62 91.387 128.677 94.38 128.677C97.373 128.677 99.6469 129.56 101.2 131.327ZM96.91 144.927C97.336 142.957 97.527 140.943 97.48 138.927C97.518 136.989 97.313 135.054 96.87 133.167C96.47 131.647 95.64 130.887 94.38 130.887C93.12 130.887 92.2899 131.657 91.8899 133.187C91.4429 135.067 91.238 136.996 91.28 138.927C91.233 140.943 91.424 142.957 91.85 144.927C92.23 146.467 93.07 147.227 94.38 147.227C95.69 147.227 96.53 146.467 96.91 144.927Z" fill="white"/>
<path d="M127 124.177C127.712 124.518 128.307 125.061 128.711 125.739C129.115 126.417 129.31 127.199 129.27 127.987C129.299 128.468 129.219 128.949 129.036 129.394C128.852 129.839 128.57 130.237 128.21 130.557C127.435 131.186 126.457 131.51 125.46 131.467C124.769 131.494 124.082 131.35 123.46 131.047C123.651 130.333 123.742 129.596 123.73 128.857C123.78 128.019 123.547 127.188 123.07 126.497C122.812 126.2 122.487 125.968 122.122 125.821C121.757 125.673 121.362 125.614 120.97 125.647C120.24 125.606 119.523 125.85 118.97 126.327C118.713 126.576 118.514 126.877 118.387 127.21C118.259 127.544 118.205 127.901 118.23 128.257C118.22 129.069 118.457 129.864 118.91 130.537C119.362 131.207 119.931 131.79 120.59 132.257C121.26 132.737 122.17 133.317 123.33 133.997C124.468 134.654 125.57 135.371 126.63 136.147C127.494 136.797 128.227 137.604 128.79 138.527C129.401 139.568 129.706 140.761 129.67 141.967C129.736 143.053 129.529 144.138 129.068 145.123C128.607 146.109 127.906 146.963 127.03 147.607C125.001 148.958 122.595 149.627 120.16 149.517C118.115 149.587 116.083 149.158 114.24 148.267C113.492 147.91 112.866 147.34 112.441 146.628C112.016 145.916 111.81 145.095 111.85 144.267C111.829 143.77 111.913 143.275 112.098 142.813C112.282 142.351 112.562 141.933 112.92 141.587C113.666 140.906 114.651 140.546 115.66 140.587C116.352 140.548 117.042 140.693 117.66 141.007C117.496 141.662 117.406 142.333 117.39 143.007C117.39 145.627 118.473 146.937 120.64 146.937C121.535 146.974 122.41 146.67 123.09 146.087C123.406 145.798 123.654 145.443 123.818 145.047C123.982 144.652 124.058 144.225 124.04 143.797C124.05 142.986 123.813 142.191 123.36 141.517C122.902 140.84 122.326 140.251 121.66 139.777C120.98 139.287 120.07 138.697 118.94 138.017C117.8 137.358 116.695 136.641 115.63 135.867C114.769 135.218 114.039 134.41 113.48 133.487C112.87 132.46 112.561 131.282 112.59 130.087C112.531 128.685 112.954 127.305 113.79 126.177C114.625 125.095 115.743 124.265 117.02 123.777C118.421 123.225 119.914 122.946 121.42 122.957C123.351 122.909 125.265 123.327 127 124.177Z" fill="white"/>
<path d="M147.86 144.627C147.884 145.604 147.525 146.551 146.86 147.267C146.138 148.029 145.237 148.599 144.24 148.927C143.178 149.306 142.058 149.499 140.93 149.497C137.91 149.497 135.627 148.577 134.08 146.737C132.413 144.582 131.579 141.898 131.73 139.177C131.73 135.844 132.57 133.264 134.25 131.437C135.93 129.61 138.353 128.677 141.52 128.637C143.311 128.569 145.079 129.058 146.58 130.037C147.237 130.496 147.766 131.116 148.116 131.837C148.466 132.558 148.626 133.357 148.58 134.157C148.58 136.397 147.787 137.944 146.2 138.797C144.171 139.751 141.939 140.194 139.7 140.087C139.031 140.099 138.363 140.059 137.7 139.967C137.683 141.438 138.026 142.89 138.7 144.197C139.026 144.718 139.49 145.139 140.041 145.413C140.592 145.686 141.208 145.802 141.82 145.747C142.871 145.764 143.907 145.498 144.82 144.977C145.711 144.461 146.428 143.692 146.88 142.767C147.215 142.939 147.488 143.209 147.664 143.542C147.839 143.875 147.908 144.254 147.86 144.627ZM138.44 133.087C137.944 134.758 137.694 136.493 137.7 138.237H138.46C139.722 138.348 140.985 138.046 142.06 137.377C142.499 136.997 142.84 136.517 143.054 135.978C143.269 135.438 143.349 134.855 143.29 134.277C143.32 133.433 143.119 132.596 142.71 131.857C142.538 131.544 142.282 131.284 141.972 131.108C141.661 130.931 141.307 130.844 140.95 130.857C139.74 130.877 138.9 131.617 138.44 133.087Z" fill="white"/>
<path d="M156.51 138.887C156.44 140.597 156.737 142.302 157.38 143.887C157.672 144.496 158.145 145 158.733 145.331C159.322 145.662 159.998 145.804 160.67 145.737C161.637 145.766 162.586 145.475 163.37 144.907C164.136 144.317 164.704 143.508 165 142.587C165.408 142.712 165.761 142.973 166 143.327C166.233 143.679 166.352 144.095 166.34 144.517C166.364 145.501 166.03 146.461 165.4 147.217C164.737 147.982 163.89 148.567 162.94 148.917C161.916 149.31 160.827 149.507 159.73 149.497C156.73 149.497 154.42 148.577 152.88 146.737C151.217 144.58 150.386 141.897 150.54 139.177C150.384 136.389 151.26 133.641 153 131.457C154.63 129.587 157 128.647 160.18 128.647C161.827 128.585 163.462 128.957 164.92 129.727C165.525 130.068 166.021 130.573 166.352 131.183C166.682 131.793 166.834 132.485 166.79 133.177C166.819 133.592 166.742 134.008 166.567 134.386C166.393 134.763 166.125 135.091 165.79 135.337C165.014 135.837 164.102 136.084 163.18 136.047C162.845 136.048 162.51 136.017 162.18 135.957C161.904 135.918 161.638 135.822 161.4 135.677C161.53 135.092 161.607 134.496 161.63 133.897C161.63 131.897 160.95 130.897 159.63 130.897C157.54 130.917 156.51 133.567 156.51 138.887Z" fill="white"/>
<path d="M175.66 133.427C175.38 134.85 175.253 136.298 175.28 137.747V148.667H169.5V129.407L174.23 128.947L174.49 132.347C174.855 131.253 175.555 130.302 176.49 129.627C177.429 128.958 178.557 128.608 179.71 128.627C180.332 128.595 180.953 128.687 181.539 128.899C182.124 129.11 182.662 129.436 183.12 129.857C183.543 130.296 183.87 130.817 184.082 131.389C184.294 131.96 184.385 132.569 184.35 133.177C184.382 133.67 184.316 134.165 184.154 134.632C183.993 135.099 183.74 135.529 183.41 135.897C183.048 136.228 182.623 136.482 182.161 136.645C181.699 136.808 181.209 136.877 180.72 136.847C180.383 136.842 180.048 136.802 179.72 136.727C179.425 136.688 179.142 136.586 178.89 136.427C179.082 135.779 179.17 135.103 179.15 134.427C179.15 132.587 178.56 131.667 177.38 131.667C176.46 131.721 175.887 132.307 175.66 133.427Z" fill="white"/>
<path d="M201.35 144.627C201.374 145.604 201.015 146.552 200.35 147.267C199.624 148.029 198.72 148.599 197.72 148.927C196.661 149.305 195.545 149.498 194.42 149.497C191.42 149.497 189.11 148.577 187.56 146.737C185.896 144.581 185.065 141.897 185.22 139.177C185.22 135.877 186.05 133.297 187.73 131.437C189.41 129.577 191.83 128.637 195 128.637C196.791 128.568 198.559 129.057 200.06 130.037C200.718 130.495 201.248 131.114 201.598 131.836C201.949 132.557 202.108 133.357 202.06 134.157C202.06 136.397 201.267 137.944 199.68 138.797C197.655 139.752 195.426 140.195 193.19 140.087C192.521 140.1 191.852 140.06 191.19 139.967C191.173 141.438 191.516 142.89 192.19 144.197C192.516 144.718 192.98 145.139 193.531 145.413C194.082 145.686 194.698 145.802 195.31 145.747C196.361 145.761 197.396 145.496 198.31 144.977C199.198 144.461 199.912 143.692 200.36 142.767C200.698 142.936 200.974 143.206 201.152 143.539C201.329 143.873 201.398 144.253 201.35 144.627ZM191.92 133.087C191.427 134.759 191.181 136.494 191.19 138.237H191.94C193.205 138.348 194.471 138.047 195.55 137.377C195.989 136.998 196.33 136.517 196.544 135.978C196.759 135.438 196.839 134.855 196.78 134.277C196.807 133.432 196.603 132.595 196.19 131.857C196.018 131.544 195.762 131.285 195.452 131.108C195.141 130.931 194.787 130.845 194.43 130.857C193.23 130.877 192.39 131.617 191.92 133.087Z" fill="white"/>
<path d="M203.08 131.107V129.937C204.366 129.437 205.596 128.804 206.75 128.047C207.875 127.324 208.903 126.46 209.81 125.477H211.43V129.407H214.91V131.107H211.39V144.547C211.353 145.177 211.506 145.805 211.83 146.347C212.176 146.791 212.682 147.082 213.24 147.157C212.98 147.82 212.486 148.365 211.85 148.687C211.15 149.055 210.37 149.244 209.58 149.237C209.033 149.282 208.484 149.21 207.967 149.028C207.45 148.845 206.977 148.555 206.58 148.177C205.862 147.325 205.503 146.228 205.58 145.117V131.117L203.08 131.107Z" fill="white"/>
<path d="M231.73 131.327C233.243 133.114 234 135.594 234 138.767C234.147 141.56 233.335 144.319 231.7 146.587C230.875 147.573 229.83 148.35 228.648 148.856C227.467 149.361 226.182 149.581 224.9 149.497C223.629 149.58 222.356 149.372 221.177 148.889C219.999 148.405 218.946 147.659 218.1 146.707C216.455 144.553 215.629 141.884 215.77 139.177C215.623 136.426 216.448 133.711 218.1 131.507C219.647 129.62 221.92 128.677 224.92 128.677C227.92 128.677 230.19 129.56 231.73 131.327ZM227.45 144.927C227.867 142.955 228.055 140.942 228.01 138.927C228.051 136.99 227.849 135.055 227.41 133.167C227.01 131.647 226.17 130.887 224.92 130.887C223.67 130.887 222.83 131.657 222.42 133.187C221.982 135.068 221.781 136.996 221.82 138.927C221.775 140.942 221.963 142.955 222.38 144.927C222.76 146.467 223.61 147.227 224.92 147.227C226.23 147.227 227.07 146.467 227.45 144.927Z" fill="white"/>
<path d="M118.593 73.0337C118.401 73.0327 118.212 72.9847 118.043 72.8937L75.6328 50.4737C75.3668 50.3387 75.1638 50.1057 75.0658 49.8247C74.9668 49.5437 74.9798 49.2357 75.1028 48.9637L93.5028 6.79367C93.5708 6.64567 93.6678 6.51268 93.7878 6.40268C93.9078 6.29268 94.0488 6.20867 94.2028 6.15367C94.3558 6.09967 94.5178 6.07868 94.6798 6.09068C94.8418 6.10268 94.9988 6.14767 95.1428 6.22367L137.553 28.6237C137.813 28.7647 138.011 28.9967 138.109 29.2767C138.207 29.5557 138.198 29.8617 138.083 30.1337L119.673 72.3037C119.608 72.4517 119.513 72.5857 119.394 72.6957C119.276 72.8057 119.135 72.8897 118.983 72.9437C118.86 72.9997 118.727 73.0307 118.593 73.0337ZM77.7028 48.9037L118.023 70.1937L135.483 30.1937L95.1628 8.90367L77.7028 48.9037Z" fill="white" stroke="white" stroke-miterlimit="10"/>
<path d="M137.023 30.8433C136.758 30.8423 136.502 30.7533 136.293 30.5903C136.085 30.4273 135.937 30.2003 135.873 29.9433C135.835 29.7933 135.829 29.6363 135.852 29.4833C135.876 29.3303 135.93 29.1833 136.011 29.0513C136.092 28.9193 136.198 28.8043 136.324 28.7143C136.449 28.6233 136.592 28.5583 136.743 28.5233L158.173 23.2433L118.773 2.44329L94.7727 8.35329C94.4687 8.42629 94.1488 8.37729 93.8818 8.21629C93.6138 8.05529 93.4208 7.79529 93.3428 7.49329C93.3008 7.34129 93.2888 7.18329 93.3088 7.02729C93.3298 6.87129 93.3808 6.72029 93.4598 6.58429C93.5388 6.44829 93.6448 6.32929 93.7708 6.23529C93.8958 6.14029 94.0398 6.07129 94.1928 6.03329L118.643 0.0332942C118.923 -0.0357058 119.22 0.00329477 119.473 0.143295L162.023 22.6033C162.236 22.7143 162.409 22.8883 162.52 23.1003C162.631 23.3133 162.674 23.5553 162.643 23.7933C162.613 24.0303 162.512 24.2533 162.353 24.4323C162.194 24.6103 161.985 24.7363 161.753 24.7933L137.313 30.7933C137.219 30.8263 137.121 30.8423 137.023 30.8433Z" fill="white" stroke="white" stroke-miterlimit="10"/>
<path d="M118.593 73.0336C118.336 73.0326 118.088 72.9476 117.884 72.7926C117.68 72.6376 117.532 72.4206 117.463 72.1736C117.42 72.0256 117.407 71.8706 117.425 71.7166C117.442 71.5636 117.49 71.4146 117.566 71.2806C117.641 71.1456 117.742 71.0266 117.864 70.9316C117.985 70.8356 118.124 70.7656 118.273 70.7236L138.273 65.0836L160.433 23.0836C160.581 22.8106 160.831 22.6066 161.129 22.5166C161.427 22.4266 161.748 22.4586 162.023 22.6036C162.16 22.6756 162.281 22.7736 162.38 22.8926C162.479 23.0116 162.554 23.1486 162.599 23.2966C162.645 23.4446 162.661 23.5996 162.646 23.7536C162.631 23.9076 162.586 24.0576 162.513 24.1936L140.093 66.6136C140.016 66.7546 139.912 66.8786 139.787 66.9786C139.661 67.0776 139.517 67.1516 139.363 67.1936L118.913 72.9636C118.81 73.0026 118.702 73.0266 118.593 73.0336Z" fill="white" stroke="white" stroke-miterlimit="10"/>
<path d="M119.678 12.4196C120.327 11.1886 119.855 9.66363 118.624 9.01463C117.393 8.36563 115.869 8.83663 115.22 10.0676C114.571 11.2986 115.042 12.8236 116.273 13.4726C117.504 14.1216 119.028 13.6506 119.678 12.4196Z" fill="white" stroke="white" stroke-miterlimit="10"/>
<path d="M117.453 14.9437H117.393C116.413 14.9257 115.481 14.5197 114.8 13.8147C114.12 13.1097 113.746 12.1637 113.763 11.1837C113.77 10.6997 113.874 10.2207 114.066 9.77672C114.259 9.33172 114.537 8.92872 114.886 8.59172C115.234 8.25472 115.645 7.98972 116.096 7.81172C116.547 7.63372 117.028 7.54572 117.513 7.55372C118.459 7.61072 119.348 8.02772 119.996 8.72072C120.643 9.41372 121 10.3287 120.992 11.2777C120.985 12.2257 120.613 13.1347 119.954 13.8177C119.296 14.4997 118.4 14.9027 117.453 14.9437ZM117.453 12.5837C117.803 12.5837 118.139 12.4467 118.39 12.2017C118.64 11.9567 118.785 11.6237 118.793 11.2737C118.8 11.0897 118.769 10.9067 118.704 10.7357C118.639 10.5637 118.54 10.4067 118.413 10.2737C118.29 10.1477 118.144 10.0477 117.983 9.97972C117.821 9.91072 117.648 9.87472 117.473 9.87372C117.289 9.86072 117.105 9.88672 116.933 9.95072C116.76 10.0147 116.603 10.1147 116.473 10.2437C116.283 10.4287 116.152 10.6647 116.097 10.9237C116.042 11.1817 116.064 11.4507 116.161 11.6967C116.258 11.9427 116.426 12.1547 116.644 12.3057C116.861 12.4557 117.118 12.5387 117.383 12.5437L117.453 12.5837Z" fill="white" stroke="white" stroke-miterlimit="10"/>
<path d="M138.023 50.3737C137.524 50.3657 137.039 50.2097 136.629 49.9257C136.219 49.6417 135.902 49.2427 135.719 48.7787C135.536 48.3147 135.495 47.8067 135.6 47.3197C135.706 46.8317 135.954 46.3867 136.313 46.0407C136.672 45.6947 137.126 45.4627 137.617 45.3737C138.108 45.2857 138.614 45.3447 139.071 45.5447C139.528 45.7437 139.916 46.0747 140.185 46.4947C140.454 46.9147 140.592 47.4047 140.583 47.9037C140.577 48.2347 140.507 48.5607 140.375 48.8637C140.244 49.1667 140.054 49.4407 139.816 49.6707C139.578 49.8997 139.297 50.0807 138.989 50.2007C138.682 50.3217 138.353 50.3807 138.023 50.3737Z" fill="white" stroke="white" stroke-miterlimit="10"/>
<path d="M138.022 51.5535H137.962C137.476 51.5455 136.996 51.4415 136.55 51.2475C136.104 51.0535 135.7 50.7735 135.362 50.4235C134.687 49.7175 134.317 48.7725 134.334 47.7945C134.351 46.8175 134.753 45.8865 135.452 45.2035C135.977 44.6935 136.641 44.3515 137.361 44.2205C138.081 44.0895 138.823 44.1745 139.494 44.4665C140.164 44.7575 140.734 45.2425 141.129 45.8575C141.524 46.4735 141.727 47.1925 141.712 47.9235C141.709 48.4085 141.608 48.8875 141.416 49.3325C141.224 49.7775 140.943 50.1795 140.592 50.5135C139.904 51.1815 138.982 51.5555 138.022 51.5535ZM138.022 46.5535C137.85 46.5515 137.679 46.5845 137.519 46.6495C137.36 46.7155 137.215 46.8115 137.092 46.9335C136.968 47.0575 136.868 47.2045 136.801 47.3665C136.733 47.5285 136.698 47.7025 136.698 47.8785C136.698 48.0545 136.733 48.2285 136.801 48.3905C136.868 48.5525 136.968 48.6995 137.092 48.8235C137.215 48.9495 137.361 49.0495 137.522 49.1185C137.684 49.1865 137.857 49.2225 138.032 49.2235C138.216 49.2415 138.402 49.2175 138.575 49.1535C138.748 49.0895 138.905 48.9865 139.032 48.8535C139.222 48.6685 139.353 48.4325 139.408 48.1735C139.463 47.9155 139.441 47.6465 139.344 47.4005C139.247 47.1545 139.079 46.9425 138.861 46.7925C138.644 46.6415 138.387 46.5585 138.122 46.5535H138.022Z" fill="white" stroke="white" stroke-miterlimit="10"/>
<path d="M131.122 62.3634C130.624 62.3554 130.139 62.2004 129.728 61.9164C129.318 61.6324 129.002 61.2324 128.819 60.7684C128.636 60.3044 128.594 59.7964 128.7 59.3094C128.806 58.8224 129.054 58.3774 129.413 58.0304C129.772 57.6844 130.226 57.4524 130.717 57.3644C131.208 57.2754 131.714 57.3354 132.171 57.5344C132.628 57.7344 133.016 58.0644 133.285 58.4844C133.554 58.9044 133.692 59.3954 133.682 59.8934C133.669 60.5604 133.393 61.1944 132.913 61.6574C132.433 62.1204 131.789 62.3744 131.122 62.3634Z" fill="white" stroke="white" stroke-miterlimit="10"/>
<path d="M131.173 63.5437H131.103C130.243 63.5217 129.418 63.2027 128.769 62.6397C128.119 62.0767 127.685 61.3057 127.54 60.4587C127.396 59.6117 127.55 58.7407 127.976 57.9937C128.403 57.2477 129.075 56.6727 129.879 56.3677C130.682 56.0617 131.567 56.0447 132.381 56.3187C133.196 56.5937 133.89 57.1417 134.345 57.8717C134.8 58.6007 134.988 59.4647 134.876 60.3177C134.764 61.1697 134.36 61.9567 133.732 62.5437C133.041 63.1967 132.123 63.5557 131.173 63.5437ZM131.173 61.1837C131.348 61.1897 131.522 61.1597 131.685 61.0957C131.848 61.0327 131.997 60.9367 132.122 60.8137C132.25 60.6927 132.353 60.5477 132.423 60.3857C132.494 60.2247 132.531 60.0497 132.533 59.8737C132.538 59.6087 132.465 59.3477 132.323 59.1237C132.18 58.8997 131.974 58.7237 131.731 58.6167C131.488 58.5107 131.218 58.4787 130.957 58.5247C130.696 58.5717 130.454 58.6947 130.263 58.8787C130.072 59.0627 129.94 59.2997 129.883 59.5597C129.827 59.8187 129.849 60.0887 129.946 60.3357C130.044 60.5827 130.212 60.7947 130.431 60.9457C130.649 61.0967 130.907 61.1797 131.173 61.1837Z" fill="white" stroke="white" stroke-miterlimit="10"/>
<path d="M145.023 38.9337C144.524 38.9257 144.039 38.7697 143.629 38.4857C143.219 38.2017 142.902 37.8027 142.719 37.3387C142.536 36.8747 142.495 36.3667 142.6 35.8797C142.706 35.3917 142.954 34.9467 143.313 34.6007C143.672 34.2547 144.126 34.0227 144.617 33.9337C145.108 33.8457 145.614 33.9047 146.071 34.1047C146.528 34.3037 146.916 34.6347 147.185 35.0547C147.454 35.4747 147.592 35.9647 147.583 36.4637C147.577 36.7947 147.507 37.1207 147.375 37.4237C147.244 37.7267 147.054 38.0007 146.816 38.2307C146.578 38.4597 146.297 38.6407 145.989 38.7607C145.682 38.8817 145.353 38.9407 145.023 38.9337Z" fill="white" stroke="white" stroke-miterlimit="10"/>
<path d="M145.023 40.1136C144.075 40.0506 143.187 39.6256 142.545 38.9256C141.902 38.2266 141.552 37.3066 141.569 36.3566C141.586 35.4066 141.967 34.4996 142.634 33.8236C143.301 33.1476 144.203 32.7536 145.153 32.7236C146.1 32.7866 146.988 33.2126 147.631 33.9116C148.273 34.6106 148.623 35.5306 148.606 36.4806C148.589 37.4306 148.208 38.3376 147.541 39.0136C146.874 39.6896 145.972 40.0836 145.023 40.1136ZM145.023 37.7536C145.198 37.7626 145.374 37.7346 145.537 37.6706C145.701 37.6066 145.849 37.5096 145.973 37.3836C146.102 37.2636 146.204 37.1176 146.275 36.9566C146.346 36.7946 146.382 36.6196 146.383 36.4436C146.387 36.2686 146.357 36.0946 146.293 35.9316C146.229 35.7686 146.134 35.6196 146.013 35.4936C145.891 35.3666 145.745 35.2646 145.584 35.1946C145.422 35.1236 145.249 35.0866 145.073 35.0836C144.72 35.0836 144.382 35.2196 144.128 35.4646C143.874 35.7086 143.726 36.0416 143.713 36.3936C143.707 36.7476 143.842 37.0886 144.087 37.3436C144.333 37.5986 144.669 37.7456 145.023 37.7536Z" fill="white" stroke="white" stroke-miterlimit="10"/>
<path d="M141.472 23.6233C140.973 23.6173 140.487 23.4633 140.076 23.1803C139.664 22.8983 139.346 22.4993 139.161 22.0353C138.977 21.5713 138.934 21.0633 139.039 20.5753C139.144 20.0873 139.391 19.6413 139.75 19.2933C140.108 18.9463 140.562 18.7133 141.053 18.6243C141.544 18.5353 142.051 18.5943 142.509 18.7933C142.966 18.9923 143.355 19.3233 143.624 19.7433C143.894 20.1633 144.032 20.6543 144.022 21.1533C144.017 21.4833 143.947 21.8083 143.816 22.1113C143.685 22.4133 143.496 22.6873 143.259 22.9173C143.022 23.1463 142.743 23.3263 142.436 23.4483C142.13 23.5693 141.802 23.6293 141.472 23.6233Z" fill="white" stroke="white" stroke-miterlimit="10"/>
<path d="M141.523 24.8035H141.453C140.723 24.7895 140.015 24.5595 139.416 24.1435C138.817 23.7265 138.355 23.1425 138.089 22.4635C137.822 21.7845 137.762 21.0425 137.918 20.3295C138.073 19.6165 138.435 18.9665 138.96 18.4595C139.485 17.9525 140.148 17.6135 140.866 17.4835C141.583 17.3535 142.323 17.4385 142.992 17.7295C143.661 18.0195 144.229 18.5015 144.625 19.1145C145.02 19.7275 145.224 20.4445 145.213 21.1735C145.194 22.1405 144.798 23.0625 144.108 23.7415C143.418 24.4195 142.49 24.8015 141.523 24.8035ZM141.523 22.4435C141.706 22.4605 141.891 22.4355 142.064 22.3715C142.237 22.3075 142.394 22.2055 142.523 22.0735C142.652 21.9535 142.755 21.8075 142.825 21.6465C142.896 21.4845 142.932 21.3095 142.933 21.1335C142.944 20.9505 142.917 20.7665 142.853 20.5945C142.789 20.4225 142.69 20.2655 142.563 20.1335C142.379 19.9445 142.143 19.8145 141.886 19.7585C141.628 19.7025 141.359 19.7245 141.114 19.8205C140.868 19.9165 140.657 20.0825 140.505 20.2985C140.354 20.5145 140.269 20.7695 140.263 21.0335C140.259 21.2095 140.289 21.3835 140.353 21.5475C140.417 21.7105 140.513 21.8595 140.634 21.9865C140.756 22.1125 140.902 22.2135 141.063 22.2835C141.224 22.3535 141.397 22.3905 141.573 22.3935L141.523 22.4435Z" fill="white" stroke="white" stroke-miterlimit="10"/>
<path d="M119.543 38.6036C119.044 38.5956 118.559 38.4406 118.15 38.1566C117.74 37.8736 117.423 37.4746 117.24 37.0116C117.056 36.5476 117.014 36.0406 117.119 35.5536C117.224 35.0656 117.471 34.6206 117.829 34.2736C118.187 33.9276 118.64 33.6946 119.13 33.6046C119.621 33.5156 120.127 33.5736 120.584 33.7716C121.041 33.9696 121.43 34.2986 121.7 34.7176C121.97 35.1356 122.11 35.6256 122.103 36.1236C122.099 36.4546 122.029 36.7826 121.898 37.0866C121.767 37.3906 121.577 37.6666 121.339 37.8966C121.101 38.1276 120.82 38.3086 120.511 38.4296C120.203 38.5516 119.874 38.6106 119.543 38.6036Z" fill="white" stroke="white" stroke-miterlimit="10"/>
<path d="M119.593 39.7736H119.523C119.038 39.7656 118.56 39.6616 118.116 39.4676C117.671 39.2746 117.269 38.9956 116.932 38.6466C116.253 37.9426 115.88 36.9976 115.898 36.0186C115.915 35.0396 116.32 34.1086 117.024 33.4286C117.729 32.7486 118.674 32.3766 119.653 32.3936C120.137 32.3996 120.616 32.5006 121.06 32.6936C121.505 32.8856 121.907 33.1646 122.243 33.5136C122.581 33.8626 122.848 34.2746 123.026 34.7266C123.205 35.1786 123.293 35.6616 123.284 36.1476C123.276 36.6336 123.172 37.1126 122.978 37.5586C122.783 38.0036 122.503 38.4066 122.153 38.7436C121.467 39.4086 120.548 39.7786 119.593 39.7736ZM119.593 34.7736C119.246 34.7766 118.913 34.9126 118.663 35.1536C118.473 35.3386 118.342 35.5746 118.287 35.8336C118.232 36.0916 118.254 36.3606 118.351 36.6066C118.449 36.8526 118.616 37.0646 118.834 37.2156C119.051 37.3656 119.308 37.4486 119.573 37.4536C119.757 37.4646 119.941 37.4356 120.113 37.3706C120.286 37.3046 120.442 37.2036 120.573 37.0736C120.7 36.9516 120.802 36.8066 120.872 36.6446C120.942 36.4836 120.98 36.3096 120.983 36.1336C120.987 35.9586 120.956 35.7836 120.892 35.6196C120.828 35.4566 120.733 35.3076 120.611 35.1806C120.489 35.0546 120.344 34.9536 120.182 34.8836C120.021 34.8136 119.848 34.7766 119.673 34.7736H119.593Z" fill="white" stroke="white" stroke-miterlimit="10"/>
<path d="M109.163 33.1236C108.664 33.1156 108.18 32.9606 107.77 32.6766C107.36 32.3936 107.043 31.9946 106.86 31.5316C106.676 31.0676 106.635 30.5606 106.74 30.0736C106.845 29.5856 107.092 29.1406 107.45 28.7946C107.808 28.4476 108.26 28.2146 108.751 28.1246C109.241 28.0356 109.747 28.0936 110.204 28.2916C110.661 28.4896 111.05 28.8186 111.32 29.2376C111.59 29.6556 111.731 30.1456 111.723 30.6436C111.717 30.9746 111.647 31.3016 111.516 31.6056C111.384 31.9086 111.194 32.1836 110.956 32.4136C110.719 32.6446 110.438 32.8256 110.13 32.9476C109.822 33.0686 109.494 33.1286 109.163 33.1236Z" fill="white" stroke="white" stroke-miterlimit="10"/>
<path d="M109.213 34.2936H109.143C108.658 34.2856 108.18 34.1816 107.735 33.9876C107.291 33.7946 106.889 33.5156 106.552 33.1666C106.216 32.8186 105.951 32.4066 105.774 31.9556C105.596 31.5046 105.509 31.0236 105.518 30.5386C105.526 30.0546 105.63 29.5756 105.823 29.1316C106.017 28.6876 106.296 28.2856 106.644 27.9486C106.993 27.6116 107.405 27.3476 107.856 27.1696C108.306 26.9926 108.788 26.9056 109.273 26.9136C109.757 26.9166 110.237 27.0176 110.682 27.2106C111.127 27.4026 111.528 27.6826 111.863 28.0336C112.195 28.3846 112.455 28.7966 112.626 29.2486C112.798 29.6996 112.878 30.1806 112.863 30.6636C112.847 31.6246 112.457 32.5426 111.775 33.2206C111.093 33.8986 110.174 34.2836 109.213 34.2936ZM109.213 31.9436C109.563 31.9416 109.898 31.8016 110.147 31.5546C110.395 31.3086 110.537 30.9736 110.543 30.6236C110.554 30.4406 110.528 30.2566 110.464 30.0846C110.4 29.9126 110.301 29.7556 110.173 29.6236C109.924 29.3716 109.587 29.2246 109.233 29.2136C109.049 29.2036 108.865 29.2326 108.692 29.2976C108.52 29.3636 108.364 29.4646 108.233 29.5936C108.044 29.7776 107.913 30.0136 107.857 30.2706C107.802 30.5286 107.823 30.7966 107.919 31.0426C108.015 31.2876 108.182 31.4996 108.397 31.6516C108.613 31.8026 108.869 31.8866 109.133 31.8936L109.213 31.9436Z" fill="white" stroke="white" stroke-miterlimit="10"/>
<path d="M98.7918 27.6435C98.2938 27.6375 97.8078 27.4835 97.3968 27.2015C96.9848 26.9195 96.6668 26.5215 96.4818 26.0585C96.2968 25.5945 96.2538 25.0875 96.3578 24.5995C96.4618 24.1115 96.7078 23.6655 97.0658 23.3175C97.4228 22.9695 97.8758 22.7355 98.3668 22.6455C98.8568 22.5555 99.3638 22.6125 99.8218 22.8105C100.28 23.0085 100.669 23.3375 100.939 23.7565C101.21 24.1755 101.35 24.6655 101.342 25.1635C101.339 25.4945 101.269 25.8205 101.139 26.1245C101.009 26.4285 100.82 26.7035 100.583 26.9335C100.346 27.1635 100.066 27.3455 99.7578 27.4675C99.4508 27.5895 99.1228 27.6495 98.7918 27.6435Z" fill="white" stroke="white" stroke-miterlimit="10"/>
<path d="M98.8327 28.8135H98.7727C98.0427 28.7995 97.3337 28.5695 96.7337 28.1535C96.1347 27.7375 95.6707 27.1535 95.4027 26.4745C95.1347 25.7955 95.0727 25.0525 95.2257 24.3385C95.3787 23.6255 95.7398 22.9725 96.2628 22.4635C96.9778 21.8045 97.9198 21.4455 98.8928 21.4635C99.6218 21.4775 100.332 21.7075 100.931 22.1235C101.531 22.5395 101.994 23.1235 102.262 23.8025C102.53 24.4815 102.592 25.2245 102.439 25.9385C102.286 26.6515 101.926 27.3045 101.403 27.8135C100.707 28.4665 99.7857 28.8245 98.8327 28.8135ZM98.8327 26.4635C99.0077 26.4675 99.1827 26.4355 99.3457 26.3705C99.5097 26.3045 99.6578 26.2075 99.7828 26.0835C99.9098 25.9615 100.012 25.8155 100.082 25.6545C100.152 25.4935 100.19 25.3195 100.193 25.1435C100.195 24.7885 100.058 24.4475 99.8108 24.1925C99.5638 23.9385 99.2268 23.7915 98.8728 23.7835C98.5178 23.7805 98.1768 23.9175 97.9218 24.1645C97.6678 24.4115 97.5208 24.7485 97.5128 25.1035C97.5048 25.2875 97.5348 25.4705 97.5998 25.6425C97.6658 25.8145 97.7648 25.9715 97.8928 26.1035C98.0138 26.2305 98.1598 26.3325 98.3218 26.4025C98.4828 26.4735 98.6567 26.5105 98.8327 26.5135V26.4635Z" fill="white" stroke="white" stroke-miterlimit="10"/>
<path d="M110.502 55.7234C110.002 55.7234 109.513 55.5744 109.097 55.2954C108.682 55.0154 108.359 54.6194 108.17 54.1564C107.981 53.6924 107.934 53.1834 108.035 52.6934C108.137 52.2034 108.382 51.7544 108.739 51.4034C109.096 51.0534 109.55 50.8174 110.042 50.7264C110.534 50.6344 111.042 50.6914 111.502 50.8904C111.961 51.0884 112.351 51.4194 112.622 51.8404C112.893 52.2614 113.032 52.7534 113.022 53.2534C113.009 53.9134 112.738 54.5414 112.267 55.0034C111.796 55.4654 111.162 55.7234 110.502 55.7234Z" fill="white" stroke="white" stroke-miterlimit="10"/>
<path d="M110.543 56.9034H110.483C109.997 56.8964 109.518 56.7924 109.073 56.5994C108.627 56.4054 108.224 56.1264 107.887 55.7774C107.55 55.4274 107.285 55.0154 107.107 54.5634C106.93 54.1114 106.843 53.6294 106.853 53.1434C106.864 52.6554 106.974 52.1754 107.175 51.7304C107.376 51.2854 107.664 50.8854 108.023 50.5534C108.737 49.8934 109.68 49.5354 110.653 49.5534C111.599 49.6104 112.488 50.0284 113.136 50.7204C113.783 51.4134 114.14 52.3284 114.133 53.2774C114.125 54.2254 113.753 55.1344 113.094 55.8174C112.436 56.4994 111.54 56.9024 110.593 56.9434L110.543 56.9034ZM110.543 54.5434C110.877 54.5144 111.188 54.3614 111.414 54.1144C111.641 53.8674 111.767 53.5444 111.767 53.2084C111.767 52.8734 111.641 52.5504 111.414 52.3034C111.188 52.0554 110.877 51.9024 110.543 51.8734C110.367 51.8694 110.192 51.9014 110.029 51.9664C109.865 52.0314 109.717 52.1294 109.593 52.2534C109.466 52.3734 109.364 52.5174 109.294 52.6774C109.223 52.8374 109.186 53.0094 109.183 53.1834C109.176 53.3674 109.206 53.5504 109.271 53.7224C109.336 53.8944 109.435 54.0514 109.563 54.1834C109.685 54.3094 109.831 54.4094 109.992 54.4784C110.154 54.5474 110.327 54.5824 110.503 54.5834L110.543 54.5434Z" fill="white" stroke="white" stroke-miterlimit="10"/>
<path d="M100.122 50.2433C99.6238 50.2353 99.1389 50.0793 98.7279 49.7953C98.3179 49.5123 98.0019 49.1123 97.8189 48.6483C97.6359 48.1843 97.5938 47.6763 97.6998 47.1893C97.8058 46.7013 98.0539 46.2563 98.4129 45.9103C98.7719 45.5643 99.2259 45.3323 99.7169 45.2433C100.208 45.1553 100.714 45.2143 101.171 45.4143C101.628 45.6133 102.016 45.9443 102.285 46.3643C102.554 46.7843 102.692 47.2753 102.682 47.7733C102.677 48.1043 102.607 48.4303 102.475 48.7333C102.344 49.0363 102.153 49.3113 101.916 49.5403C101.678 49.7703 101.397 49.9503 101.089 50.0703C100.781 50.1913 100.453 50.2503 100.122 50.2433Z" fill="white" stroke="white" stroke-miterlimit="10"/>
<path d="M100.172 51.4236H100.102C99.3629 51.4206 98.6409 51.1956 98.0309 50.7766C97.4209 50.3586 96.9509 49.7666 96.6809 49.0786C96.4119 48.3896 96.3549 47.6356 96.5199 46.9146C96.6839 46.1926 97.0609 45.5376 97.6019 45.0336C98.1269 44.5236 98.7909 44.1816 99.5109 44.0506C100.231 43.9196 100.973 44.0046 101.644 44.2966C102.315 44.5876 102.884 45.0726 103.279 45.6876C103.674 46.3036 103.877 47.0226 103.862 47.7536C103.844 48.7206 103.448 49.6426 102.758 50.3216C102.068 50.9996 101.14 51.3816 100.172 51.3836V51.4236ZM100.172 46.4236C99.8229 46.4236 99.4879 46.5606 99.2389 46.8056C98.9899 47.0516 98.8479 47.3846 98.8419 47.7336C98.8479 48.0766 98.9859 48.4046 99.2289 48.6476C99.4719 48.8896 99.7989 49.0286 100.142 49.0336C100.326 49.0486 100.511 49.0236 100.684 48.9596C100.856 48.8956 101.013 48.7946 101.142 48.6636C101.331 48.4796 101.462 48.2446 101.518 47.9866C101.573 47.7286 101.552 47.4606 101.456 47.2146C101.36 46.9696 101.193 46.7576 100.978 46.6066C100.762 46.4546 100.506 46.3706 100.242 46.3636L100.172 46.4236Z" fill="white" stroke="white" stroke-miterlimit="10"/>
<path d="M89.7429 44.7633C89.2439 44.7553 88.7589 44.5993 88.3489 44.3153C87.9379 44.0323 87.6219 43.6323 87.4389 43.1683C87.2559 42.7043 87.2149 42.1963 87.3199 41.7093C87.4259 41.2223 87.6738 40.7763 88.0328 40.4303C88.3918 40.0843 88.8459 39.8523 89.3369 39.7633C89.8279 39.6753 90.3338 39.7343 90.7908 39.9343C91.2478 40.1333 91.6359 40.4643 91.9049 40.8843C92.1739 41.3043 92.3119 41.7953 92.3029 42.2933C92.2969 42.6243 92.2269 42.9503 92.0949 43.2533C91.9639 43.5563 91.7738 43.8313 91.5358 44.0603C91.2978 44.2903 91.0169 44.4703 90.7089 44.5913C90.4019 44.7113 90.0729 44.7703 89.7429 44.7633Z" fill="white" stroke="white" stroke-miterlimit="10"/>
<path d="M89.7918 45.9437H89.7218C88.7748 45.8807 87.8868 45.4557 87.2438 44.7557C86.6018 44.0567 86.2518 43.1367 86.2688 42.1867C86.2858 41.2367 86.6668 40.3297 87.3338 39.6537C88.0008 38.9777 88.9028 38.5837 89.8518 38.5537C90.7988 38.6107 91.6878 39.0277 92.3358 39.7207C92.9828 40.4137 93.3398 41.3287 93.3318 42.2777C93.3248 43.2257 92.9528 44.1347 92.2938 44.8177C91.6358 45.4997 90.7398 45.9027 89.7918 45.9437ZM89.7918 40.9437C89.4418 40.9437 89.1058 41.0807 88.8548 41.3257C88.6048 41.5707 88.4598 41.9037 88.4518 42.2537C88.4438 42.4367 88.4718 42.6197 88.5348 42.7917C88.5988 42.9637 88.6968 43.1207 88.8218 43.2537C89.0708 43.5057 89.4088 43.6497 89.7618 43.6537C89.9458 43.6737 90.1328 43.6517 90.3058 43.5867C90.4798 43.5227 90.6358 43.4187 90.7618 43.2837C91.0118 43.0327 91.1518 42.6927 91.1518 42.3387C91.1518 41.9847 91.0118 41.6447 90.7618 41.3937C90.6408 41.2667 90.4948 41.1647 90.3338 41.0947C90.1718 41.0247 89.9988 40.9867 89.8218 40.9837L89.7918 40.9437Z" fill="white" stroke="white" stroke-miterlimit="10"/>
</g>
<defs>
<clipPath id="clip0_1002_49">
<rect width="234.017" height="156.195" fill="white"/>
</clipPath>
</defs>
</svg>
